<svg id="Grupo_36176" data-name="Grupo 36176" xmlns="http://www.w3.org/2000/svg" width="58.84" height="69.759" viewBox="0 0 58.84 69.759">
  <path id="Trazado_61409" data-name="Trazado 61409" d="M-501.044,14.275c-.738-.123-1.424-.228-2.105-.353a11.95,11.95,0,0,1-4.286-1.782,13.4,13.4,0,0,1-3.682-3.42,13.048,13.048,0,0,1-2.505-6.072,13.51,13.51,0,0,1,3.928-11.837,13.127,13.127,0,0,1,8.313-3.845,12.969,12.969,0,0,1,9.132,2.353A12.913,12.913,0,0,1-488.535-6.9a14.4,14.4,0,0,1,1.991,4.89A13.748,13.748,0,0,1-496.8,13.882c-.715.174-1.445.284-2.28.445.469.3.834.547,1.212.772a45.6,45.6,0,0,1,10.1,8.135,12.126,12.126,0,0,1,2.483,3.98c.245.64.291.672.966.665a17.2,17.2,0,0,1,9.047,2.377,8.533,8.533,0,0,1,3.965,4.583,9.272,9.272,0,0,1-1.427,9.369,20.643,20.643,0,0,1-4.884,4.345,27.325,27.325,0,0,1-4.816,2.616c-2.042.815-4.037,1.761-6.115,2.462-2.579.87-5.229,1.527-7.836,2.32a13.258,13.258,0,0,1-3.125.685,9.822,9.822,0,0,1-3.265-.346c-1.936-.549-3.885-1.057-5.8-1.659a63.834,63.834,0,0,1-9.285-3.512,29.186,29.186,0,0,1-6.251-3.72,17.312,17.312,0,0,1-3.671-3.706,9.763,9.763,0,0,1-1.7-5.264,9.222,9.222,0,0,1,3.98-7.7,12.665,12.665,0,0,1,5.09-2.259,24.055,24.055,0,0,1,5-.612.482.482,0,0,0,.363-.243c1.266-3.251,3.674-5.585,6.24-7.789a51.6,51.6,0,0,1,7.4-5.2,1.3,1.3,0,0,0,.2-.155A2.371,2.371,0,0,0-501.044,14.275Zm.735-1.951A11.656,11.656,0,0,0-488.294.787,11.746,11.746,0,0,0-499.966-11.2,11.939,11.939,0,0,0-511.874.659,11.88,11.88,0,0,0-500.309,12.324Zm4.979,40.842c.218-.04.3-.049.381-.071A77.685,77.685,0,0,0-481.372,48a21.514,21.514,0,0,0,4.942-3.055,9.851,9.851,0,0,0,3.23-5,6.766,6.766,0,0,0,.229-2.527,8.654,8.654,0,0,0-.974-2.546,4.529,4.529,0,0,0-2.627-2.218,2.34,2.34,0,0,0-.8-.1,3.9,3.9,0,0,0-2.352.936,17.072,17.072,0,0,0-3.538,3.273c-.832,1.16-1.786,2.233-2.7,3.331-.365.437-.777.834-1.164,1.253a1.578,1.578,0,0,0-.247.327,9.9,9.9,0,0,1-.594,1.172c-2.129,3-4.277,5.981-6.418,8.971C-494.681,52.224-494.968,52.647-495.329,53.166Zm-9.229.081a2.36,2.36,0,0,0-.167-.322c-.8-1.026-1.614-2.036-2.391-3.076-1.26-1.684-2.548-3.35-3.726-5.089a83.919,83.919,0,0,0-6.669-8.714,14.32,14.32,0,0,0-3.606-3.018,3.007,3.007,0,0,0-3.875.387,7.278,7.278,0,0,0-2.045,3.561,5.2,5.2,0,0,0,.3,3.566,12.937,12.937,0,0,0,2.831,4.2,21.757,21.757,0,0,0,4.444,2.9,57.4,57.4,0,0,0,8.039,3.423q1.817.687,3.669,1.281C-506.725,52.676-505.675,52.935-504.558,53.246Zm6.575-35.852c.049.273.089.455.113.64a12.517,12.517,0,0,0,.6,1.847c.422,1.447.79,2.916,1.072,4.4a14.7,14.7,0,0,1-.086,6.122,8.715,8.715,0,0,1-2.693,4.652.453.453,0,0,0-.077.425,14.2,14.2,0,0,0,1.353,2.116,6.893,6.893,0,0,0,4.3,2.118,5.532,5.532,0,0,0,5.4-1.681,7.041,7.041,0,0,0,1.713-4.556c.016-.515,0-1.03.008-1.545a8.806,8.806,0,0,0-.811-3.61,16.17,16.17,0,0,0-3.485-5.009,61.443,61.443,0,0,0-7.057-5.729A3.394,3.394,0,0,0-497.983,17.394Zm-4.548.358-.089-.091a2.51,2.51,0,0,0-.433.231,69.784,69.784,0,0,0-6.753,5.7c-2.657,2.762-4.275,5.918-4.008,9.847a8.412,8.412,0,0,0,.638,3.044,5.82,5.82,0,0,0,5.974,3.282,7.271,7.271,0,0,0,4.581-1.972,12.4,12.4,0,0,0,1.479-2.08.546.546,0,0,0-.17-.785,7.5,7.5,0,0,1-.845-.853,10.357,10.357,0,0,1-2.4-6.9,27.856,27.856,0,0,1,.366-3.779,13.984,13.984,0,0,1,.962-3.634C-502.968,19.1-502.762,18.423-502.531,17.752Zm-7.825,24c1.209,1.751,2.357,3.442,3.534,5.111.56.794,1.153,1.565,1.769,2.315,1.26,1.534,2.507,3.082,3.835,4.557.937,1.04,1.394.977,2.359-.029a75.9,75.9,0,0,0,6.419-8.045c.866-1.19,1.675-2.421,2.5-3.638.047-.069.086-.226.057-.25a.45.45,0,0,0-.3-.092c-.411.044-.818.122-1.229.166a9.137,9.137,0,0,1-7.531-2.46c-.4-.375-.787-.772-1.173-1.151C-502.778,41.565-506.317,42.3-510.356,41.754Zm10.072-23.74c-.072.15-.142.271-.19.4a26.643,26.643,0,0,0-1.877,7.263A9.56,9.56,0,0,0-500.58,32.6c.441.567.652.57,1.059-.022a8.61,8.61,0,0,0,1.374-3.968,15.9,15.9,0,0,0-.579-6.148c-.25-.907-.474-1.823-.747-2.723-.166-.546-.4-1.07-.614-1.6C-500.108,18.091-500.2,18.067-500.285,18.014Zm16.133,16.465a13.978,13.978,0,0,1,4.792-3.571,10.663,10.663,0,0,0-5.173-.775A9.2,9.2,0,0,1-484.152,34.479Zm-36.641-3.636c.873.523,1.731.956,2.494,1.516.783.575,1.474,1.276,2.2,1.917.088-1.291.171-2.539.262-3.786.023-.318-.107-.444-.421-.426a17.36,17.36,0,0,0-4.008.579C-520.425,30.692-520.578,30.761-520.792,30.843Z" transform="translate(529.489 13.106)" fill="#fff"/>
</svg>
