<svg xmlns="http://www.w3.org/2000/svg" width="192" height="100.753" viewBox="0 0 192 100.753">
  <g id="Grupo_37350" data-name="Grupo 37350" transform="translate(675.598 13.106)">
    <g id="Grupo_37349" data-name="Grupo 37349" transform="translate(-607.669 -13.106)">
      <path id="Trazado_62847" data-name="Trazado 62847" d="M-502.41,12.959c-.7-.117-1.355-.217-2-.336a11.375,11.375,0,0,1-4.08-1.7A12.754,12.754,0,0,1-512,7.671a12.422,12.422,0,0,1-2.385-5.78,12.861,12.861,0,0,1,3.739-11.268,12.5,12.5,0,0,1,7.913-3.66,12.346,12.346,0,0,1,8.693,2.24,12.293,12.293,0,0,1,3.535,3.6,13.711,13.711,0,0,1,1.895,4.655,13.088,13.088,0,0,1-9.76,15.125c-.681.166-1.376.271-2.17.424.447.285.794.521,1.153.735a43.407,43.407,0,0,1,9.612,7.744,11.544,11.544,0,0,1,2.364,3.789c.233.609.277.639.92.633a16.378,16.378,0,0,1,8.613,2.263,8.124,8.124,0,0,1,3.775,4.362,8.826,8.826,0,0,1-1.359,8.919,19.651,19.651,0,0,1-4.65,4.136,26.01,26.01,0,0,1-4.585,2.491c-1.944.775-3.843,1.676-5.822,2.344-2.455.828-4.978,1.454-7.459,2.208a12.621,12.621,0,0,1-2.975.652,9.35,9.35,0,0,1-3.108-.329c-1.843-.523-3.7-1.007-5.526-1.579a60.767,60.767,0,0,1-8.839-3.344,27.784,27.784,0,0,1-5.951-3.541,16.481,16.481,0,0,1-3.495-3.528,9.294,9.294,0,0,1-1.621-5.011,8.779,8.779,0,0,1,3.789-7.326,12.056,12.056,0,0,1,4.846-2.15,22.9,22.9,0,0,1,4.757-.583.458.458,0,0,0,.345-.232c1.205-3.095,3.5-5.317,5.94-7.415a49.119,49.119,0,0,1,7.047-4.948,1.24,1.24,0,0,0,.193-.148A2.263,2.263,0,0,0-502.41,12.959Zm.7-1.857A11.1,11.1,0,0,0-490.273.119a11.182,11.182,0,0,0-11.111-11.414A11.365,11.365,0,0,0-512.72,0,11.309,11.309,0,0,0-501.711,11.1Zm4.74,38.879c.208-.038.287-.046.363-.068a73.951,73.951,0,0,0,12.924-4.848,20.479,20.479,0,0,0,4.7-2.908,9.377,9.377,0,0,0,3.075-4.764,6.443,6.443,0,0,0,.218-2.406,8.239,8.239,0,0,0-.927-2.424,4.311,4.311,0,0,0-2.5-2.111,2.227,2.227,0,0,0-.757-.1,3.709,3.709,0,0,0-2.239.891,16.253,16.253,0,0,0-3.368,3.115c-.792,1.1-1.7,2.126-2.573,3.171-.347.416-.74.794-1.108,1.193a1.5,1.5,0,0,0-.235.311,9.422,9.422,0,0,1-.566,1.115c-2.027,2.854-4.072,5.694-6.109,8.54C-496.353,49.085-496.627,49.487-496.971,49.981Zm-8.785.077a2.251,2.251,0,0,0-.159-.307c-.758-.977-1.536-1.938-2.276-2.928-1.2-1.6-2.425-3.189-3.547-4.845a79.88,79.88,0,0,0-6.349-8.3,13.634,13.634,0,0,0-3.432-2.873,2.862,2.862,0,0,0-3.689.369,6.928,6.928,0,0,0-1.947,3.39,4.946,4.946,0,0,0,.286,3.394,12.316,12.316,0,0,0,2.7,4,20.713,20.713,0,0,0,4.231,2.761,54.641,54.641,0,0,0,7.653,3.259q1.729.654,3.493,1.219C-507.819,49.515-506.819,49.761-505.756,50.058Zm6.259-34.13c.047.259.085.433.108.609a11.919,11.919,0,0,0,.576,1.758c.4,1.378.752,2.776,1.02,4.186a14,14,0,0,1-.082,5.828,8.3,8.3,0,0,1-2.564,4.429.431.431,0,0,0-.073.4,13.522,13.522,0,0,0,1.288,2.014,6.562,6.562,0,0,0,4.091,2.016,5.266,5.266,0,0,0,5.136-1.6,6.7,6.7,0,0,0,1.631-4.337c.015-.49,0-.981.008-1.471a8.384,8.384,0,0,0-.772-3.437,15.393,15.393,0,0,0-3.317-4.768,58.5,58.5,0,0,0-6.718-5.453A3.236,3.236,0,0,0-499.5,15.928Zm-4.33.341-.085-.087a2.388,2.388,0,0,0-.412.219,66.434,66.434,0,0,0-6.428,5.427c-2.53,2.63-4.069,5.633-3.816,9.374a8.006,8.006,0,0,0,.608,2.9,5.54,5.54,0,0,0,5.687,3.125,6.922,6.922,0,0,0,4.36-1.877,11.8,11.8,0,0,0,1.408-1.98.519.519,0,0,0-.162-.747,7.141,7.141,0,0,1-.8-.812,9.859,9.859,0,0,1-2.284-6.569,26.529,26.529,0,0,1,.349-3.6,13.311,13.311,0,0,1,.915-3.459C-504.243,17.556-504.046,16.908-503.826,16.269Zm-7.449,22.849c1.151,1.667,2.244,3.276,3.365,4.865.533.755,1.1,1.49,1.684,2.2,1.2,1.46,2.387,2.934,3.651,4.338.892.99,1.327.93,2.246-.027a72.248,72.248,0,0,0,6.111-7.659c.825-1.133,1.594-2.305,2.384-3.463.045-.066.082-.215.054-.238a.428.428,0,0,0-.282-.087c-.391.042-.779.116-1.17.158a8.7,8.7,0,0,1-7.169-2.341c-.385-.357-.749-.735-1.116-1.1C-504.062,38.938-507.43,39.637-511.275,39.118Zm9.588-22.6c-.068.143-.135.258-.181.381a25.364,25.364,0,0,0-1.787,6.914,9.1,9.1,0,0,0,1.687,6.593c.419.54.62.543,1.008-.021a8.2,8.2,0,0,0,1.308-3.777,15.139,15.139,0,0,0-.551-5.852c-.238-.864-.451-1.735-.711-2.592-.158-.519-.382-1.019-.585-1.523C-501.52,16.592-501.606,16.57-501.688,16.518Zm15.358,15.674a13.306,13.306,0,0,1,4.562-3.4,10.151,10.151,0,0,0-4.924-.737A8.752,8.752,0,0,1-486.33,32.192Zm-34.88-3.461c.831.5,1.648.91,2.374,1.444.746.548,1.4,1.215,2.1,1.825.084-1.229.163-2.417.25-3.6.022-.3-.1-.423-.4-.405a16.526,16.526,0,0,0-3.815.551C-520.86,28.588-521.007,28.654-521.21,28.731Z" transform="translate(529.489 13.106)" fill="#fff"/>
    </g>
    <path id="Trazado_62848" data-name="Trazado 62848" d="M-277.2,145.98a5.388,5.388,0,0,0-1.4,1.235c-.294.286-.444.285-.749,0a4.81,4.81,0,0,0-5.268-1.231,4.381,4.381,0,0,0-2.7,4.652,4.271,4.271,0,0,0,4.075,3.856,4.909,4.909,0,0,0,3.914-1.533c.287-.288.452-.265.7.019.356.4.736.788,1.125,1.161.215.206.189.343-.012.544a7.493,7.493,0,0,1-10.164.549,6.03,6.03,0,0,1-2.064-3.782A6.773,6.773,0,0,1-288.577,146a6.9,6.9,0,0,1,6.411-2.729,7.384,7.384,0,0,1,4.7,2.293,1.832,1.832,0,0,0,.264.189Z" transform="translate(-206.4 -83.658)" fill="#fff"/>
    <path id="Trazado_62849" data-name="Trazado 62849" d="M-415.682,192.586a7.708,7.708,0,0,1-1.9-.857,4.81,4.81,0,0,1-1.63-5.849,4.825,4.825,0,0,1,5.169-2.819A4.769,4.769,0,0,1-410,187.433a4.727,4.727,0,0,1-3.772,5.057c-.047.012-.086.063-.128.1Zm4.7-4.765a3.726,3.726,0,0,0-3.818-3.85,3.731,3.731,0,0,0-3.788,3.823,3.808,3.808,0,0,0,3.812,3.884A3.815,3.815,0,0,0-410.986,187.821Z" transform="translate(-136.977 -104.94)" fill="#fff"/>
    <path id="Trazado_62850" data-name="Trazado 62850" d="M-453.831,192.559c-.244-.187-.554-.166-.828-.266a4.619,4.619,0,0,1-3.091-4.567,4.552,4.552,0,0,1,3.461-4.555,5,5,0,0,1,5.043,1.257c.16.156.536.331.185.667-.3.283-.517.421-.9.019a3.8,3.8,0,0,0-3.889-1.042,3.638,3.638,0,0,0-2.832,2.9,3.882,3.882,0,0,0,4.391,4.648,4.009,4.009,0,0,0,2.441-1.21c.365-.4.548-.015.778.137.326.216.053.372-.086.523a4.541,4.541,0,0,1-2.167,1.3c-.167.047-.381,0-.5.187Z" transform="translate(-116.566 -104.912)" fill="#fff"/>
    <path id="Trazado_62851" data-name="Trazado 62851" d="M-506.427,192.574a3.693,3.693,0,0,1-1.935-1.581c-.112-.192-.283-.388.055-.531.259-.11.512-.464.772.024a2.424,2.424,0,0,0,.636.769,1.623,1.623,0,0,0,2.638-.873,1.64,1.64,0,0,0-.569-1.494A24.078,24.078,0,0,0-507,187.06a2.286,2.286,0,0,1-.446-3.341,2.4,2.4,0,0,1,3.485.039c.118.117.214.256.327.379.191.209.348.4,0,.618-.277.176-.511.486-.784-.007a1.473,1.473,0,0,0-.384-.4,1.344,1.344,0,0,0-1.905.049,1.265,1.265,0,0,0,.252,1.829c.526.468,1.106.875,1.663,1.308a5,5,0,0,1,1.158,1.2,2.423,2.423,0,0,1-1.023,3.616c-.144.069-.336.053-.425.225Z" transform="translate(-89.408 -104.927)" fill="#fff"/>
    <path id="Trazado_62852" data-name="Trazado 62852" d="M-501.946,148.872c-.871,2.576-1.706,5.014-2.51,7.462-.131.4-.286.593-.728.544-.55-.061-1.236.212-1.623-.108-.355-.293-.407-.961-.578-1.468-.715-2.125-1.423-4.252-2.22-6.38q-.337,1.924-.674,3.848c-.215,1.223-.453,2.442-.638,3.669-.056.375-.212.451-.542.437-.5-.02-1-.027-1.5,0-.4.023-.482-.141-.42-.492.236-1.332.461-2.665.693-4,.47-2.7.95-5.4,1.406-8.105.058-.339.161-.49.523-.472.648.032,1.42-.185,1.912.1s.5,1.14.709,1.749c.716,2.127,1.413,4.261,2.119,6.392.069.21.15.416.271.747.227-.656.422-1.2.605-1.748.749-2.234,1.5-4.466,2.233-6.707a.636.636,0,0,1,.751-.535,12.44,12.44,0,0,0,1.449,0c.31-.012.446.063.5.411.459,2.835.945,5.665,1.424,8.5.207,1.224.407,2.45.633,3.671.068.369-.011.512-.4.489a7.209,7.209,0,0,0-1.337.006c-.541.069-.693-.18-.769-.656-.366-2.306-.757-4.607-1.142-6.91A4.248,4.248,0,0,0-501.946,148.872Z" transform="translate(-86.788 -83.937)" fill="#fff"/>
    <path id="Trazado_62853" data-name="Trazado 62853" d="M-664.162,148.993l-2.063,6.121q-.151.448-.3.895c-.311.907-.312.907-1.292.907-1.246,0-1.244,0-1.642-1.194q-1.055-3.167-2.113-6.335c-.046-.138-.095-.274-.191-.55-.33,1.877-.635,3.612-.94,5.348-.135.767-.289,1.531-.4,2.3-.05.362-.213.452-.55.436-.519-.024-1.041-.021-1.56,0-.326.012-.429-.1-.372-.422q.916-5.2,1.818-10.4c.105-.6.207-1.206.3-1.81.045-.306.171-.452.508-.434a11.515,11.515,0,0,0,1.5,0c.416-.032.574.138.7.516.908,2.784,1.841,5.56,2.77,8.352.252-.1.228-.338.286-.508.877-2.6,1.753-5.2,2.6-7.811a.655.655,0,0,1,.793-.549,6.973,6.973,0,0,0,1.336,0c.42-.042.545.147.6.513.263,1.646.541,3.29.816,4.934q.584,3.481,1.173,6.961c.111.65.12.654-.537.656h-.836c-.972,0-.968,0-1.133-.978q-.561-3.343-1.131-6.685A1.433,1.433,0,0,0-664.162,148.993Z" transform="translate(0 -83.982)" fill="#fff"/>
    <path id="Trazado_62854" data-name="Trazado 62854" d="M-366.5,150.118a6.775,6.775,0,0,1-7.035,6.8,6.913,6.913,0,0,1-6.513-7.017,6.841,6.841,0,0,1,6.892-6.708A6.784,6.784,0,0,1-366.5,150.118Zm-6.76,4.327a4.228,4.228,0,0,0,4.268-4.34,4.269,4.269,0,0,0-4.258-4.442,4.207,4.207,0,0,0-4.286,4.392A4.238,4.238,0,0,0-373.261,154.445Z" transform="translate(-158.141 -83.633)" fill="#fff"/>
    <path id="Trazado_62855" data-name="Trazado 62855" d="M-614.412,150.447q0-3.039,0-6.078c0-.23-.073-.5.327-.5a32.289,32.289,0,0,1,5.391.235,5.068,5.068,0,0,1,3.641,2.594,7.543,7.543,0,0,1,.481,6.708A5.173,5.173,0,0,1-609.7,156.9c-1.375.026-2.751,0-4.126.038-.456.012-.6-.107-.6-.582C-614.4,154.388-614.412,152.418-614.412,150.447Zm2.529-.05c0,1.206,0,2.412,0,3.618,0,.264.006.474.369.463a15.629,15.629,0,0,0,2.385-.122,2.7,2.7,0,0,0,1.982-1.462,5.133,5.133,0,0,0,.261-4.151,3.178,3.178,0,0,0-2.427-2.216,9.445,9.445,0,0,0-2.038-.218c-.406-.007-.55.1-.539.525C-611.864,148.021-611.883,149.209-611.883,150.4Z" transform="translate(-32.733 -83.997)" fill="#fff"/>
    <path id="Trazado_62856" data-name="Trazado 62856" d="M-544.988,156.914c-1.243,0-1.234,0-1.7-1.16-.2-.495-.221-1.164-.648-1.436s-1.048-.071-1.585-.078c-.984-.012-1.97.022-2.953-.014a.745.745,0,0,0-.891.593c-.175.584-.444,1.14-.653,1.715a.508.508,0,0,1-.576.387c-.556-.026-1.115-.026-1.671,0-.444.02-.5-.13-.348-.52.731-1.864,1.442-3.736,2.162-5.605.82-2.128,1.649-4.253,2.455-6.386.15-.4.329-.606.8-.561a13,13,0,0,0,1.615.007.439.439,0,0,1,.484.344q2.343,6.132,4.71,12.255c.131.338.081.485-.306.464C-544.393,156.9-544.691,156.914-544.988,156.914Zm-4.905-9.508c-.538,1.379-1.028,2.655-1.537,3.923-.135.336-.093.465.3.456.815-.018,1.63-.014,2.444,0,.34.006.491-.066.341-.442C-548.855,150.074-549.348,148.8-549.893,147.406Z" transform="translate(-63.947 -83.98)" fill="#fff"/>
    <path id="Trazado_62857" data-name="Trazado 62857" d="M-327.905,143.848c1.274,0,1.265,0,1.726,1.2q2.1,5.478,4.22,10.951c.053.138.093.283.156.417.169.358.081.507-.332.489-.685-.031-1.487.185-2.023-.1s-.594-1.151-.78-1.78a.994.994,0,0,0-1.191-.814c-1.3.054-2.6.031-3.9.007a.594.594,0,0,0-.681.477c-.192.58-.47,1.131-.662,1.711a.648.648,0,0,1-.776.509,10.965,10.965,0,0,0-1.5,0c-.5.031-.509-.152-.354-.551q1.985-5.107,3.946-10.224c.213-.554.454-1.1.631-1.663.149-.474.38-.73.911-.629A3.355,3.355,0,0,0-327.905,143.848Zm.015,3.54c-.55,1.405-1.052,2.7-1.561,3.985-.087.22-.15.4.2.395.994,0,1.987,0,3.06,0Z" transform="translate(-182.733 -83.969)" fill="#fff"/>
    <path id="Trazado_62858" data-name="Trazado 62858" d="M-405.335,156.887c-3.591,0-6.139-1.94-6.889-5.15a6.857,6.857,0,0,1,7.1-8.537,7.369,7.369,0,0,1,5.1,2.32c.239.248.256.393-.009.618a13.7,13.7,0,0,0-1.138,1.066c-.265.282-.431.218-.677-.023a5.523,5.523,0,0,0-3.094-1.524,4.376,4.376,0,0,0-4.89,3.876,4.217,4.217,0,0,0,2.392,4.5,4.781,4.781,0,0,0,5.289-.835c.673-.6.671-.6,1.273.067a7.459,7.459,0,0,0,.7.716c.336.28.34.486,0,.792A7.1,7.1,0,0,1-405.335,156.887Z" transform="translate(-140.821 -83.631)" fill="#fff"/>
    <path id="Trazado_62859" data-name="Trazado 62859" d="M-454.648,156.857l2.593-3.965c.509-.776,1-1.564,1.536-2.322a.661.661,0,0,0-.009-.881c-1.2-1.79-2.366-3.6-3.543-5.4-.079-.121-.236-.246-.176-.386.082-.191.3-.094.45-.094a5.185,5.185,0,0,1,2.192.093c.564.293.847,1.128,1.246,1.73.431.65.864,1.3,1.274,1.961.192.311.305.345.519.009.717-1.128,1.469-2.234,2.186-3.361a.79.79,0,0,1,.8-.446c.517.038,1.04,0,1.56.014.209.006.5-.122.608.1.082.168-.136.363-.245.529-1,1.539-1.965,3.111-3.045,4.6a1.58,1.58,0,0,0-.023,2.207c1.2,1.629,2.248,3.363,3.353,5.058.095.145.309.287.195.482-.092.157-.307.075-.466.075a5.507,5.507,0,0,1-2.142-.087c-.6-.28-.848-1.128-1.253-1.725-.49-.722-.956-1.459-1.435-2.188-.349-.53-.354-.531-.687-.022-.781,1.2-1.57,2.389-2.333,3.6a.808.808,0,0,1-.808.437C-453.04,156.836-453.783,156.857-454.648,156.857Z" transform="translate(-118.226 -83.923)" fill="#fff"/>
    <path id="Trazado_62860" data-name="Trazado 62860" d="M-636.51,150.341c0-1.969.009-3.938-.008-5.907,0-.406.062-.587.537-.58,2.025.028,4.05.023,6.075,0,.412,0,.565.1.535.528a12.469,12.469,0,0,0,0,1.5c.017.348-.117.445-.451.441-1.226-.015-2.452.008-3.678-.013-.406-.007-.579.109-.545.533.046.571-.225,1.305.1,1.674s1.085.107,1.651.123c.835.023,1.672.018,2.508,0,.317-.007.426.1.413.416a14.225,14.225,0,0,0,0,1.5c.027.409-.094.55-.523.54-1.207-.028-2.415.007-3.622-.019-.417-.009-.55.111-.534.531.032.8.023,1.6,0,2.4-.009.338.1.451.441.446,1.245-.018,2.49.007,3.734-.015.391-.007.524.109.5.5-.031.537-.016,1.077,0,1.616.005.259-.087.363-.354.363-2.137-.007-4.273-.012-6.409,0-.424,0-.37-.252-.37-.511Q-636.51,153.379-636.51,150.341Z" transform="translate(-20.911 -83.986)" fill="#fff"/>
    <path id="Trazado_62861" data-name="Trazado 62861" d="M-474.318,150.353c0-1.988.012-3.976-.009-5.963,0-.42.119-.535.534-.53q3.038.03,6.075,0c.412,0,.567.1.536.527a12.98,12.98,0,0,0,0,1.5c.016.347-.12.445-.453.441-1.226-.015-2.452.009-3.678-.014-.4-.008-.579.077-.542.517a9.8,9.8,0,0,1,0,1.392c-.022.354.115.439.448.435,1.226-.016,2.453.016,3.678-.018.461-.013.576.147.548.571a12.34,12.34,0,0,0,0,1.448c.017.346-.112.446-.449.442-1.226-.016-2.453.016-3.678-.018-.46-.013-.563.147-.547.57.03.8.022,1.6,0,2.4-.007.321.106.412.417.409,1.245-.014,2.49.013,3.734-.016.431-.01.549.133.523.54a13.631,13.631,0,0,0,0,1.5c.016.347-.12.442-.453.44-2.081-.012-4.161-.016-6.242,0-.4,0-.444-.177-.443-.5C-474.313,154.4-474.318,152.379-474.318,150.353Z" transform="translate(-107.696 -83.99)" fill="#fff"/>
    <path id="Trazado_62862" data-name="Trazado 62862" d="M-570.279,151.67c0,1.579-.014,3.158.01,4.737.006.418-.115.559-.533.53a11.115,11.115,0,0,0-1.5,0c-.417.028-.543-.109-.537-.53.021-1.876.009-3.752.009-5.628,0-1.3-.011-2.6.006-3.9,0-.359-.1-.5-.474-.481-.463.026-.929-.008-1.392.011-.318.013-.425-.109-.415-.422.019-.575.015-1.152,0-1.727-.007-.285.091-.392.384-.391q3.232.013,6.465,0c.276,0,.409.073.4.375q-.024.891,0,1.783c.008.3-.113.389-.4.381-.52-.014-1.041.016-1.56-.011-.373-.02-.476.121-.472.481C-570.27,148.475-570.279,150.073-570.279,151.67Z" transform="translate(-53.769 -83.994)" fill="#fff"/>
    <path id="Trazado_62863" data-name="Trazado 62863" d="M-583.084,150.376c0,2-.013,4.009.01,6.013.006.471-.144.625-.6.592a9.991,9.991,0,0,0-1.391,0c-.45.03-.559-.152-.557-.58.017-3.007.009-6.013.009-9.02,0-1,.013-2-.007-3.007-.007-.369.073-.543.487-.517a12.718,12.718,0,0,0,1.558,0c.394-.023.5.117.5.5C-583.093,146.366-583.084,148.371-583.084,150.376Z" transform="translate(-48.143 -83.987)" fill="#fff"/>
    <path id="Trazado_62864" data-name="Trazado 62864" d="M-421.7,150.439c0,1.988-.012,3.977.009,5.965,0,.421-.116.558-.533.526a9.225,9.225,0,0,0-1.393,0c-.44.034-.564-.114-.562-.557.018-3.364.01-6.727.01-10.092,0-.669.013-1.338-.005-2.007-.009-.32.11-.424.421-.413.52.019,1.042.028,1.561,0,.394-.024.5.113.5.5C-421.705,146.387-421.7,148.413-421.7,150.439Z" transform="translate(-134.532 -83.988)" fill="#fff"/>
    <path id="Trazado_62865" data-name="Trazado 62865" d="M-542.036,187.594a8.426,8.426,0,0,1,.805.484,2.26,2.26,0,0,1,.9,2.3,2.49,2.49,0,0,1-1.606,1.979,6.255,6.255,0,0,1-2.476.231c-1.37.012-1.37,0-1.37-1.34,0-2.416.011-4.831-.01-7.246,0-.443.12-.588.562-.558.592.039,1.189,0,1.782.026a2.278,2.278,0,0,1,2.3,1.519A2.211,2.211,0,0,1-542.036,187.594Zm-2.775,2.381c0,.409.024.819-.007,1.225s.139.525.516.49c.516-.047,1.037-.046,1.551-.108a1.638,1.638,0,0,0,1.436-1.349,1.607,1.607,0,0,0-1.045-1.769,5.572,5.572,0,0,0-2.2-.227c-.239,0-.252.168-.252.345Q-544.811,189.279-544.812,189.975Zm0-4.136V186.9c0,.175.008.345.247.348a3.626,3.626,0,0,0,1.69-.212,1.4,1.4,0,0,0,.8-1.7c-.235-.756-1.158-1.144-2.426-.889-.642.129-.166.747-.3,1.117A.82.82,0,0,0-544.811,185.839Z" transform="translate(-69.457 -105.17)" fill="#fff"/>
    <path id="Trazado_62866" data-name="Trazado 62866" d="M-432.535,188.347l3.227,4.2c-.688.109-1.172.117-1.6-.506-.8-1.161-1.715-2.24-2.576-3.359-.141-.184-.275-.387-.535-.3s-.141.352-.144.533c-.013,1.06-.02,2.119,0,3.179.007.369-.07.534-.484.522-.367-.01-.519-.08-.517-.49.018-2.733.01-5.466.007-8.2,0-.257-.013-.482.361-.468a29.234,29.234,0,0,1,3.228.095,2.36,2.36,0,0,1,2.176,2.452,2.425,2.425,0,0,1-2.326,2.337C-431.934,188.366-432.159,188.347-432.535,188.347Zm-1.632-2.422c0,.389.007.779,0,1.168-.006.239.041.391.331.378a12.811,12.811,0,0,0,2.217-.1,1.526,1.526,0,0,0,1.239-1.5,1.508,1.508,0,0,0-1.394-1.412c-.666-.04-1.335-.014-2-.033-.282-.008-.406.088-.393.383C-434.154,185.183-434.167,185.554-434.167,185.925Z" transform="translate(-128.653 -105.179)" fill="#fff"/>
    <path id="Trazado_62867" data-name="Trazado 62867" d="M-470.783,190.2c.125-.165.062-.356.062-.531.005-1.9.009-3.792,0-5.688,0-.35.042-.536.47-.541.462-.005.447.235.447.558-.007,2.7,0,5.391-.007,8.086,0,.157.089.379-.078.461-.229.113-.307-.153-.417-.278q-2.644-3.015-5.275-6.043c-.085-.1-.161-.2-.244-.307-.235.177-.14.377-.141.542-.008,1.877-.014,3.755,0,5.632,0,.378-.089.524-.493.516-.367-.007-.52-.078-.517-.49.017-2.732.007-5.465.012-8.2,0-.14-.074-.335.081-.408.2-.094.287.126.386.24q2.695,3.083,5.381,6.174C-471.025,190.026-470.97,190.187-470.783,190.2Z" transform="translate(-106.277 -105.166)" fill="#fff"/>
    <path id="Trazado_62868" data-name="Trazado 62868" d="M-524.948,183.505c-.862,1.423-1.688,2.806-2.538,4.175a2.089,2.089,0,0,0-.345,1.2c.024,1.077-.006,2.156.015,3.233.007.363-.1.477-.47.479s-.471-.127-.465-.484c.019-1.133,0-2.267.011-3.4a1.468,1.468,0,0,0-.238-.836c-.772-1.225-1.526-2.461-2.286-3.694-.125-.2-.242-.411-.366-.623.772-.256.978-.187,1.374.449.636,1.022,1.27,2.046,1.951,3.144.393-.628.756-1.2,1.114-1.78a8.987,8.987,0,0,0,.708-1.2A1.116,1.116,0,0,1-524.948,183.505Z" transform="translate(-77.035 -105.156)" fill="#fff"/>
    <path id="Trazado_62869" data-name="Trazado 62869" d="M-491.121,187.117l2.032-3.321c.1-.156.159-.366.371-.382.273-.02.63-.132.8.053s-.127.424-.241.616q-1.077,1.819-2.192,3.616a1.811,1.811,0,0,0-.3,1.042c.022,1.058.008,2.116.007,3.175,0,.323.1.655-.467.643-.527-.01-.44-.313-.44-.619,0-1.077-.009-2.154,0-3.23a1.541,1.541,0,0,0-.258-.886q-1.189-1.881-2.339-3.787c-.1-.174-.464-.437-.187-.578a.782.782,0,0,1,1.013.146c.251.344.455.721.68,1.084Z" transform="translate(-96.942 -105.114)" fill="#fff"/>
    <path id="Trazado_62870" data-name="Trazado 62870" d="M-300.631,169.227a1.319,1.319,0,0,1-1.37-1.359,1.41,1.41,0,0,1,1.4-1.431,1.421,1.421,0,0,1,1.4,1.43A1.326,1.326,0,0,1-300.631,169.227Z" transform="translate(-199.905 -96.07)" fill="#fff"/>
    <path id="Trazado_62871" data-name="Trazado 62871" d="M-465.791,136.893c-.925.8-1.7,1.549-2.56,2.18-.472.346-1.115.122-1.68.114-.206,0-.1-.191-.033-.294.4-.6.808-1.2,1.2-1.8a.439.439,0,0,1,.424-.2C-467.605,136.9-466.773,136.893-465.791,136.893Z" transform="translate(-109.93 -80.261)" fill="#fff"/>
    <path id="Trazado_62872" data-name="Trazado 62872" d="M-409.395,89.3c-.11-.123-.078-.275-.086-.419A.537.537,0,0,1-409.395,89.3Z" transform="translate(-142.394 -54.573)" fill="#c21d5f"/>
  </g>
</svg>
