<svg xmlns="http://www.w3.org/2000/svg" width="32.388" height="28.352" viewBox="0 0 32.388 28.352">
  <g id="Grupo_37355" data-name="Grupo 37355" transform="translate(-986.367 -1317.636)">
    <path id="Trazado_62981" data-name="Trazado 62981" d="M1002.536,1345.987q-5.784,0-11.568,0c-2.937,0-4.593-1.662-4.6-4.619q-.01-9.541,0-19.083c0-3,1.654-4.637,4.661-4.64,2.139,0,4.278.02,6.417-.008a4.552,4.552,0,0,1,3.366,1.293c.813.778,1.628,1.559,2.5,2.268a2.19,2.19,0,0,0,1.251.481c3.208.039,6.417.018,9.625.022,2.916,0,4.557,1.637,4.56,4.545q.007,7.6,0,15.2c0,2.906-1.646,4.539-4.564,4.542Q1008.362,1345.992,1002.536,1345.987Zm0-3q5.87,0,11.741,0c1.213,0,1.5-.276,1.5-1.488q.008-7.644,0-15.289c0-1.258-.272-1.517-1.552-1.518-3.632,0-7.264.015-10.9-.023a2.1,2.1,0,0,1-1.242-.495c-1.108-.956-2.123-2.019-3.239-2.963a2.462,2.462,0,0,0-1.415-.55c-2.167-.058-4.335-.028-6.5-.024-1.276,0-1.571.3-1.572,1.607q0,9.587,0,19.174c0,1.282.3,1.569,1.609,1.569Q996.747,1342.994,1002.533,1342.991Z" transform="translate(0 0)" fill="#62457f"/>
    <path id="Trazado_62982" data-name="Trazado 62982" d="M1022.378,1398.709c0,.619,0,1.239,0,1.858a.989.989,0,0,1-1.08,1.122c-1.267.022-2.534.014-3.8.005a1.022,1.022,0,0,1-1.124-1.1q-.042-1.9,0-3.8a1.049,1.049,0,0,1,1.184-1.131c1.211,0,2.422-.017,3.632.005.857.016,1.166.336,1.189,1.182C1022.392,1397.47,1022.378,1398.089,1022.378,1398.709Z" transform="translate(-24.918 -64.837)" fill="#62457f"/>
    <path id="Trazado_62983" data-name="Trazado 62983" d="M1070.381,1398.762q0,.929,0,1.859a.963.963,0,0,1-1.035,1.076c-1.295.029-2.59.019-3.885.005a.993.993,0,0,1-1.078-1.054q-.049-1.941,0-3.885a1.022,1.022,0,0,1,1.137-1.087c1.239-.006,2.478-.01,3.717,0a1.016,1.016,0,0,1,1.151,1.141C1070.378,1397.467,1070.383,1398.115,1070.381,1398.762Z" transform="translate(-64.812 -64.849)" fill="#62457f"/>
    <path id="Trazado_62984" data-name="Trazado 62984" d="M1118.379,1398.695c0,.648,0,1.3,0,1.943a.963.963,0,0,1-1.049,1.062c-1.295.026-2.59.019-3.885,0a.993.993,0,0,1-1.064-1.068c-.03-1.294-.032-2.59,0-3.885a1.022,1.022,0,0,1,1.151-1.072c1.239,0,2.478-.01,3.717,0a1.015,1.015,0,0,1,1.136,1.156c-.008.619,0,1.239,0,1.858Z" transform="translate(-104.7 -64.85)" fill="#62457f"/>
  </g>
</svg>
