<svg id="Componente_155_1" data-name="Componente 155 – 1" xmlns="http://www.w3.org/2000/svg" width="26.407" height="26.16" viewBox="0 0 26.407 26.16">
  <path id="Trazado_62792" data-name="Trazado 62792" d="M-256.448,440.957a.9.9,0,0,0-.148-.069,1.329,1.329,0,0,1-1.1-1.322,1.326,1.326,0,0,1,1.136-1.341,10.17,10.17,0,0,0,4.445-2.266,10.261,10.261,0,0,0,3.7-9,10.524,10.524,0,0,0-8.142-9.48,1.349,1.349,0,0,1-1.133-1.47,1.312,1.312,0,0,1,1.228-1.2,3.024,3.024,0,0,1,.976.168,13.2,13.2,0,0,1,9.656,10.856c.053.284.1.569.156.854v2.338c-.033.189-.068.378-.1.567a13.2,13.2,0,0,1-7.427,10.263,26.081,26.081,0,0,1-3.076,1.11Z" transform="translate(272.088 -414.797)" fill="#62457f"/>
  <path id="Trazado_62793" data-name="Trazado 62793" d="M-361.1,680.291c-1.078-.39-2.163-.762-3.23-1.179a6.593,6.593,0,0,1-1.125-.629,1.307,1.307,0,0,1-.424-1.823,1.31,1.31,0,0,1,1.814-.464,12.12,12.12,0,0,0,3.328,1.389,1.289,1.289,0,0,1,1.055,1.357,1.335,1.335,0,0,1-1.1,1.28.846.846,0,0,0-.147.07Z" transform="translate(371.393 -654.131)" fill="#62457f"/>
  <path id="Trazado_62794" data-name="Trazado 62794" d="M-333.713,528.81c1.908-1.911,3.766-3.768,5.619-5.631a1.46,1.46,0,0,1,1.1-.511,1.257,1.257,0,0,1,1.173.729,1.279,1.279,0,0,1-.1,1.379,2.611,2.611,0,0,1-.307.34q-3.169,3.173-6.34,6.343a1.378,1.378,0,0,1-2.263-.006c-.846-.845-1.7-1.683-2.53-2.543a1.326,1.326,0,0,1-.042-1.785,1.356,1.356,0,0,1,1.74-.248,2.747,2.747,0,0,1,.4.359C-334.759,527.747-334.254,528.262-333.713,528.81Z" transform="translate(345.423 -513.633)" fill="#62457f"/>
  <path id="Trazado_62795" data-name="Trazado 62795" d="M-425.25,479.582a5.125,5.125,0,0,1-.306.756,11.245,11.245,0,0,0-1.309,3.174,1.347,1.347,0,0,1-1.653,1.07,1.348,1.348,0,0,1-.973-1.679,12.8,12.8,0,0,1,1.717-4.076,1.294,1.294,0,0,1,1.523-.55A1.488,1.488,0,0,1-425.25,479.582Z" transform="translate(429.533 -472.896)" fill="#62457f"/>
  <path id="Trazado_62796" data-name="Trazado 62796" d="M-425.3,591.358a1.408,1.408,0,0,1-.916,1.435,1.3,1.3,0,0,1-1.533-.522,12.446,12.446,0,0,1-1.74-4.154,1.334,1.334,0,0,1,.993-1.627,1.328,1.328,0,0,1,1.615,1.009,11.9,11.9,0,0,0,1.382,3.323A2.372,2.372,0,0,1-425.3,591.358Z" transform="translate(429.524 -572.076)" fill="#62457f"/>
  <path id="Trazado_62797" data-name="Trazado 62797" d="M-359.686,416.076a1.255,1.255,0,0,1-.969,1.293A12.852,12.852,0,0,0-364.1,418.8a1.3,1.3,0,0,1-1.779-.474,1.306,1.306,0,0,1,.414-1.826,12.823,12.823,0,0,1,4.045-1.71A1.343,1.343,0,0,1-359.686,416.076Z" transform="translate(371.4 -414.75)" fill="#62457f"/>
</svg>
