<svg xmlns="http://www.w3.org/2000/svg" width="26.992" height="30.849" viewBox="0 0 26.992 30.849">
  <path id="Icon_metro-file-music" data-name="Icon metro-file-music" d="M30.22,8.829a27.311,27.311,0,0,0-2.626-3,27.323,27.323,0,0,0-3-2.626c-1.554-1.139-2.307-1.271-2.739-1.271H6.909A2.413,2.413,0,0,0,4.5,4.338V30.367a2.413,2.413,0,0,0,2.41,2.41H29.081a2.413,2.413,0,0,0,2.41-2.41v-18.8c0-.432-.132-1.185-1.271-2.739Zm-3.99-1.64A26.3,26.3,0,0,1,28.417,9.64H23.779V5a26.276,26.276,0,0,1,2.451,2.186Zm3.333,23.178a.489.489,0,0,1-.482.482H6.909a.489.489,0,0,1-.482-.482V4.338a.489.489,0,0,1,.482-.482H21.851V10.6a.964.964,0,0,0,.964.964h6.748ZM25.354,13.715a.964.964,0,0,0-.8-.2l-9.64,1.928a.964.964,0,0,0-.775.945v7.136a4.855,4.855,0,0,0-1.928-.388c-2.13,0-3.856,1.295-3.856,2.892s1.726,2.892,3.856,2.892,3.856-1.295,3.856-2.892V19.107l7.712-1.542V21.6a4.855,4.855,0,0,0-1.928-.388c-2.13,0-3.856,1.295-3.856,2.892s1.726,2.892,3.856,2.892S25.707,25.7,25.707,24.1V14.46a.964.964,0,0,0-.353-.746Z" transform="translate(-4.499 -1.928)" fill="#62457f"/>
</svg>
