<svg xmlns="http://www.w3.org/2000/svg" width="22.265" height="18.626" viewBox="0 0 22.265 18.626">
  <g id="Grupo_36236" data-name="Grupo 36236" transform="translate(-53.886 -798.747)">
    <g id="Grupo_36078" data-name="Grupo 36078" transform="translate(-1084.162 -3560.218)">
      <path id="Trazado_61343" data-name="Trazado 61343" d="M1160.05,4363.585c0-.063.008-.126.013-.222l-.008-1.022v-1.322c0-.523-.053-.61-.542-.812a13.055,13.055,0,0,0-3.869-.916,13.65,13.65,0,0,0-6.09.775.932.932,0,0,1-.723.008,13.642,13.642,0,0,0-6.157-.784,12.969,12.969,0,0,0-3.955.966.577.577,0,0,0-.4.609c.011.481,0,.961,0,1.469v1.351c0,4.33.007,8.66-.013,12.99a.574.574,0,0,0,.858.573,12.221,12.221,0,0,1,5.531-.924,12.547,12.547,0,0,1,3.739.74,4.984,4.984,0,0,1,.485.209.57.57,0,0,0,.532-.007,9.609,9.609,0,0,1,2.643-.776,13.219,13.219,0,0,1,3.317-.145,11.921,11.921,0,0,1,3.664.848l.2.082a.524.524,0,0,0,.776-.507v-13.183Zm-11.392,12.483h0a13.912,13.912,0,0,0-9.316,0V4365.3c0-1.322.006-2.652,0-3.981a.24.24,0,0,1,.182-.263,11.54,11.54,0,0,1,3.467-.756,13.12,13.12,0,0,1,4.559.437c.307.086.6.208.909.308a.264.264,0,0,1,.2.3v14.72Zm10.348-14.743q-.008,7.291-.008,14.579c0,.04-.005.079-.005.13v0a14.169,14.169,0,0,0-9.271-.006c0-.062-.012-.129-.012-.2q0-7.241-.008-14.482a.275.275,0,0,1,.2-.3,11.381,11.381,0,0,1,2.891-.694,13.9,13.9,0,0,1,2.793-.039,11.446,11.446,0,0,1,3.226.733A.261.261,0,0,1,1159.006,4361.325Z" transform="translate(0)" fill="#62457f" stroke="#62457f" stroke-width="0.5"/>
      <path id="Trazado_61310" data-name="Trazado 61310" d="M1356.122,4477.066h-2.073v-5.155h-.544a.533.533,0,0,1-.545-.5.506.506,0,0,1,.477-.534.377.377,0,0,1,.052,0q1.037-.013,2.076,0c.366,0,.554.205.554.587v3.114C1356.122,4475.4,1356.122,4476.218,1356.122,4477.066Z" transform="translate(-200.73 -104.406)" fill="#62457f" stroke="#62457f" stroke-width="0.5"/>
      <path id="Trazado_61311" data-name="Trazado 61311" d="M1371.767,4416.114a1.038,1.038,0,1,1-1.049-1.034A1.048,1.048,0,0,1,1371.767,4416.114Z" transform="translate(-216.376 -52.237)" fill="#62457f" stroke="#62457f" stroke-width="0.5"/>
    </g>
  </g>
</svg>
