<svg xmlns="http://www.w3.org/2000/svg" width="35.236" height="30.792" viewBox="0 0 35.236 30.792">
  <path id="Trazado_62989" data-name="Trazado 62989" d="M619.7,912.25c.643-.13,1.2-.283,1.773-.353a2.985,2.985,0,0,1,3.5,2.988q.055,4.686,0,9.372a2.986,2.986,0,0,1-3.356,2.962,5.7,5.7,0,0,1-5.363-5.716c-.026-2.906-.1-5.83.159-8.718a17.821,17.821,0,0,1,15-16.164,17.33,17.33,0,0,1,17.851,9.308,19.185,19.185,0,0,1,2.2,9.27c-.047,2.507.021,5.026-.221,7.515a5.437,5.437,0,0,1-5.547,4.517,2.87,2.87,0,0,1-2.876-2.579c-.142-1.642-.09-3.3-.106-4.954-.013-1.378-.007-2.757,0-4.135.012-2.866,1.731-4.2,4.507-3.5.229.057.457.119.694.18.607-5.4-6.075-11.847-12.917-12.519A14.329,14.329,0,0,0,619.7,912.25Zm26.271,11.661a2.131,2.131,0,0,0,2.187-1.892c.074-1.644.078-3.3,0-4.941a1.989,1.989,0,0,0-2.186-1.823Zm-24.308-.015v-8.732a2.262,2.262,0,0,0-2.163,2.173c-.062,1.464-.062,2.935,0,4.4A2.189,2.189,0,0,0,621.666,923.9Z" transform="translate(-616.221 -896.444)" fill="#a3326d"/>
</svg>
