<svg xmlns="http://www.w3.org/2000/svg" width="30.188" height="30.884" viewBox="0 0 30.188 30.884">
  <g id="Grupo_37290" data-name="Grupo 37290" transform="translate(-23.217 -277.687)">
    <g id="Grupo_37291" data-name="Grupo 37291" transform="translate(23.717 278.219)">
      <path id="Trazado_62823" data-name="Trazado 62823" d="M719.7,374.554c-1.382,0-2.765.032-4.144-.018a3.381,3.381,0,0,1-1.383-.387c-1.14-.591-2.248-1.246-3.364-1.884a5.235,5.235,0,0,0-2.459-.649c-1.211-.044-2.423-.08-3.635-.1a1.854,1.854,0,0,1-1.985-1.935q-.02-2.326,0-4.651a1.881,1.881,0,0,1,1.868-1.912,14.866,14.866,0,0,0,2.728-.57,8.663,8.663,0,0,1,7.936,1.272c.486.348.991.672,1.455,1.046a6.4,6.4,0,0,0,3.466,1.313c1.218.129,2.449.181,3.653.393a1.385,1.385,0,0,0,1.35-.465c.781-.758,1.587-1.491,2.379-2.238a3.307,3.307,0,0,1,1.76-1.016,2.241,2.241,0,0,1,2.248,1.11,2.165,2.165,0,0,1-.174,2.443c-1.714,2.3-3.406,4.61-5.123,6.9a2.953,2.953,0,0,1-2.524,1.35C722.4,374.531,721.048,374.554,719.7,374.554Zm.01-1.681c1.319,0,2.639-.017,3.958.008a1.441,1.441,0,0,0,1.235-.661c.111-.146.191-.315.3-.461,1.6-2.15,3.2-4.3,4.82-6.44a.529.529,0,0,0-.684-.794,4.3,4.3,0,0,0-.506.394c-.982.9-1.953,1.818-2.942,2.714a.6.6,0,0,0-.175.546,3.67,3.67,0,0,1-.194,1.418,2.243,2.243,0,0,1-2.216,1.265c-1.716.078-3.43.2-5.146.256a4.264,4.264,0,0,1-2.019-.2c-1.493-.8-2.9-1.763-4.316-2.691a.77.77,0,0,1-.147-1.077.8.8,0,0,1,1-.323,5.137,5.137,0,0,1,.759.424c.973.638,1.928,1.3,2.917,1.917a1.855,1.855,0,0,0,.985.295c2.053-.085,4.1-.222,6.155-.327.353-.018.582-.17.585-.505s-.234-.491-.576-.522c-1.25-.114-2.5-.232-3.747-.371a7.666,7.666,0,0,1-3.966-1.547c-.507-.4-1.046-.751-1.57-1.123a6.861,6.861,0,0,0-6.321-1.009,10.486,10.486,0,0,1-3.174.657c-.312,0-.327.2-.326.434,0,1.412.01,2.824,0,4.236,0,.323.111.43.425.431.8,0,1.6.047,2.393.044a9.655,9.655,0,0,1,5.375,1.428c.762.484,1.556.919,2.351,1.347a1.864,1.864,0,0,0,.814.232C717.068,372.886,718.388,372.873,719.707,372.873Z" transform="translate(-702.717 -344.71)" fill="#fff" stroke="#fff" stroke-width="1"/>
      <path id="Trazado_62824" data-name="Trazado 62824" d="M787.245,177.168c.628-.582,1.223-1.2,1.888-1.738,3.365-2.7,7.842-.509,8.888,3a6.221,6.221,0,0,1-.887,5.293,23.734,23.734,0,0,1-4.878,5.476c-1.4,1.189-2.886,2.28-4.348,3.4a.9.9,0,0,1-1.3.021,38.888,38.888,0,0,1-7.834-6.931,11.176,11.176,0,0,1-2.333-3.972,5.93,5.93,0,0,1,5.925-7.489,5.522,5.522,0,0,1,3.411,1.534C786.289,176.2,786.755,176.694,787.245,177.168Zm.049,13.871c1.283-1.036,2.571-2.026,3.8-3.082a21.388,21.388,0,0,0,4.89-5.634,4.168,4.168,0,0,0,.527-2.875,4.117,4.117,0,0,0-2.892-3.322,3.686,3.686,0,0,0-3.972,1.084c-.572.554-1.084,1.169-1.645,1.736a.959.959,0,0,1-1.527-.012c-.163-.161-.3-.347-.465-.51a21.239,21.239,0,0,0-1.637-1.611,3.6,3.6,0,0,0-4.474-.241,4.3,4.3,0,0,0-1.915,4.322,7.441,7.441,0,0,0,1.465,2.882A35.22,35.22,0,0,0,787.293,191.039Z" transform="translate(-769.451 -174.219)" fill="#fff" stroke="#fff" stroke-width="1"/>
    </g>
  </g>
</svg>
