<svg xmlns="http://www.w3.org/2000/svg" width="33.983" height="34.105" viewBox="0 0 33.983 34.105">
  <g id="niwkDW" transform="translate(-12222.243 -6806.778)">
    <g id="Grupo_37344" data-name="Grupo 37344" transform="translate(12222.242 6806.777)">
      <path id="Trazado_62846" data-name="Trazado 62846" d="M12262.256,6832.764l-1.933.262c0,3.385,0,6.739,0,10.1,2.152.568,2.241.794,1.744,4.622h-33.6v-4.128c.687-.111,1.313-.212,2.109-.339v-10.237l-2.213-.269a22.448,22.448,0,0,1,.065-3.437c.059-.373.854-.871,1.33-.9,2.012-.1,4.031-.071,6.046-.032a1.358,1.358,0,0,0,1.621-1.152,7.784,7.784,0,0,1,5.958-5.734,1.335,1.335,0,0,0,1.23-1.578c-.063-1.6.019-3.2-.022-4.8-.028-1.012.26-1.539,1.4-1.5,1.836.065,3.678.054,5.514,0,1.021-.028,1.366.419,1.359,1.374-.046,5.13.527,4.186-4.019,4.27-.937.018-1.879,0-2.947,0-.034.642-.061,1.142-.088,1.642a2.106,2.106,0,0,0,.51.3,8.457,8.457,0,0,1,6.991,6.285,1.632,1.632,0,0,0,1.245.813c1.952.088,3.915.113,5.868.016,1.378-.07,2,.351,1.841,1.794A26.217,26.217,0,0,0,12262.256,6832.764Zm-32.7-1.182h31.4v-1.831h-31.4Zm22.2-3.424a6.412,6.412,0,0,0-6.331-5.709,6.56,6.56,0,0,0-6.875,5.709Zm9.133,16.6h-31.321v1.734c10.09,0,20.092-.009,30.1.009C12260.883,6846.5,12260.978,6845.784,12260.886,6844.759Zm-25.557-1.531v-10.217h-3.29v10.217Zm4.681.07V6833h-3.256v10.3Zm1.459-10.307v10.252h3.263v-10.252Zm12.7,10.27v-10.218h-3.279v10.218Zm4.669-.01v-10.2h-3.271v10.2Zm-9.4,0V6833h-3.2v10.249Zm1.912-28.349h-5.441v2.829h5.441Z" transform="translate(-12228.337 -6813.638)" fill="#fff"/>
    </g>
  </g>
</svg>
