<svg xmlns="http://www.w3.org/2000/svg" width="22.552" height="23.673" viewBox="0 0 22.552 23.673">
  <g id="Grupo_36235" data-name="Grupo 36235" transform="translate(-53.599 -751.75)">
    <g id="DIIiNH.tif" transform="translate(53.848 752)">
      <g id="Grupo_36067" data-name="Grupo 36067">
        <path id="Trazado_61303" data-name="Trazado 61303" d="M-555.185-325.1v3.645c-.015.08-.035.16-.043.241a6.463,6.463,0,0,1-1.382,3.479,4.6,4.6,0,0,1-6.1,1.168.683.683,0,0,0-.339-.077q-4.037-.006-8.075,0-1.766,0-3.531,0a.979.979,0,0,1-.948-.488,1.638,1.638,0,0,1-.164-.729q-.013-8.188-.007-16.377v-.338c-.176,0-.325.007-.473,0a1.008,1.008,0,0,1-.984-1.023c-.005-.412-.013-.825,0-1.237a2.02,2.02,0,0,1,1.032-1.76,5.217,5.217,0,0,1,.809-.315h15.344a.169.169,0,0,0,.039.022,2.126,2.126,0,0,1,1.81,2.316c0,3.006,0,6.011-.006,9.017a.555.555,0,0,0,.329.608c.215.108.357.366.526.561a.812.812,0,0,1,.088.169.528.528,0,0,0,.082-.015,1.441,1.441,0,0,1,1.961,1.078A.218.218,0,0,0-555.185-325.1Zm-8.913,1.733c0-.11,0-.153,0-.2q0-2.07,0-4.139c0-.967-.011-1.935.01-2.9a1.4,1.4,0,0,1,1.432-1.376,1.4,1.4,0,0,1,1.446,1.361c.027.794.011,1.589.015,2.384,0,.086.007.172.012.277a1.689,1.689,0,0,1,1.167.053,1.705,1.705,0,0,1,.8.847.42.42,0,0,0,.12-.244q.006-4.735,0-9.471a1.222,1.222,0,0,0-1.218-1.24c-.68,0-4.577,0-5.964,0q-4.375,0-8.75,0a1.23,1.23,0,0,0-1.3,1.3c0,.307,0,.615,0,.922s.389.3.686.3c1.026,0,.711.1.7.1.033.039.08-.3.072,1.107q0,8.2,0,16.4c0,.33,0,.331.32.331h10.591a.912.912,0,0,0-.056-.1c-.54-.681-1.084-1.359-1.621-2.043-.63-.8-1.259-1.6-1.877-2.414a1.8,1.8,0,0,1-.115-2.14,1.518,1.518,0,0,1,2.442-.273C-564.827-324.161-564.489-323.781-564.1-323.365Zm.9-3.3h0c0,1.252,0,2.5,0,3.757a1.478,1.478,0,0,1-.05.4.557.557,0,0,1-.834.359,1.957,1.957,0,0,1-.457-.358c-.439-.452-.859-.922-1.3-1.373a.6.6,0,0,0-1.009.1.934.934,0,0,0,.094,1.182c.916,1.177,1.823,2.362,2.755,3.526a9.841,9.841,0,0,0,1.243,1.352,3.663,3.663,0,0,0,5.133-.234,5.105,5.105,0,0,0,1.474-3.365c.074-1.158.041-2.323.052-3.484a.9.9,0,0,0-.043-.265.463.463,0,0,0-.425-.345.505.505,0,0,0-.613.518c-.016.307,0,.615-.023.921a.437.437,0,0,1-.434.408.458.458,0,0,1-.459-.384,1.327,1.327,0,0,1-.015-.246c0-.517,0-1.035-.008-1.552a.5.5,0,0,0-.593-.519.513.513,0,0,0-.482.57c-.006.525,0,1.05,0,1.575,0,.338-.177.553-.453.557s-.456-.207-.457-.548c0-.757,0-1.515,0-2.272a1.621,1.621,0,0,0-.032-.334.489.489,0,0,0-.541-.4.486.486,0,0,0-.5.427,2.158,2.158,0,0,0-.022.336c0,.765,0,1.53,0,2.295a.456.456,0,0,1-.463.5.476.476,0,0,1-.451-.494c0-.067,0-.135,0-.2q0-3.015,0-6.029a2.618,2.618,0,0,0-.006-.292.489.489,0,0,0-.35-.449.535.535,0,0,0-.724.568C-563.2-329.2-563.194-327.934-563.194-326.667Z" transform="translate(577.238 338.913)" fill="#af3072" stroke="#a3326d" stroke-width="0.5"/>
        <path id="Trazado_61304" data-name="Trazado 61304" d="M-483.915-34.485c.584,0,1.168,0,1.752,0a.826.826,0,0,0,.325-.058.421.421,0,0,0,.221-.491.459.459,0,0,0-.505-.352q-1.774,0-3.549,0c-.322,0-.534.179-.54.446s.2.456.544.458C-485.083-34.483-484.5-34.485-483.915-34.485Z" transform="translate(490.315 43.075)" fill="#af3072" stroke="#a3326d" stroke-width="0.5"/>
        <path id="Trazado_61306" data-name="Trazado 61306" d="M-482.371-92.48c1.124,0,2.249,0,3.373,0a.447.447,0,0,1,.426.676.487.487,0,0,1-.46.225c-.847,0-1.694,0-2.541,0q-2.091,0-4.183,0c-.411,0-.651-.349-.466-.671a.489.489,0,0,1,.478-.231C-484.619-92.478-483.495-92.48-482.371-92.48Z" transform="translate(490.385 97.593)" fill="#af3072" stroke="#a3326d" stroke-width="0.5"/>
      </g>
    </g>
  </g>
</svg>
