<svg id="Componente_32_15" data-name="Componente 32 – 15" xmlns="http://www.w3.org/2000/svg" width="25.097" height="30.128" viewBox="0 0 25.097 30.128">
  <path id="Trazado_62812" data-name="Trazado 62812" d="M232.359,211.54c-2.379,0-4.759.011-7.139,0a5.172,5.172,0,0,1-5.3-5.293c-.014-3.594-.006-7.188,0-10.782a2.638,2.638,0,0,1,2.187-2.916c.549-.152.426-.512.418-.845a9.94,9.94,0,0,1,19.7-2.183,12.093,12.093,0,0,1,.173,2.314c.008.429.106.629.565.744A2.589,2.589,0,0,1,245,195.3c.006,3.667.013,7.334,0,11a5.162,5.162,0,0,1-5.214,5.233C237.312,211.558,234.836,211.54,232.359,211.54Zm.145-17.429h-9.461c-1.156,0-1.5.35-1.5,1.531q0,5.168,0,10.335a3.647,3.647,0,0,0,3.947,3.94c4.658,0,9.316-.019,13.974,0a3.617,3.617,0,0,0,3.923-3.795q.011-5.241,0-10.481c0-1.22-.325-1.534-1.565-1.534Q237.162,194.113,232.5,194.11Zm-5.267-1.709h10.448a5.291,5.291,0,0,0-2.461-5.484,4.946,4.946,0,0,0-5.509,0A5.327,5.327,0,0,0,227.237,192.4Zm13.52.022c.209-3.62-1.072-6.445-4.16-8.223a7.838,7.838,0,0,0-8.858.379,8.209,8.209,0,0,0-3.562,7.83h1.416a7.2,7.2,0,0,1,1.593-5.465,6.774,6.774,0,0,1,5.158-2.463,6.624,6.624,0,0,1,4.278,1.39,7.2,7.2,0,0,1,2.756,6.552Z" transform="translate(-219.914 -181.419)" fill="#62457f"/>
  <path id="Trazado_62813" data-name="Trazado 62813" d="M284.2,290.315a2.879,2.879,0,0,0-.649-2.124,3.234,3.234,0,0,1,.7-4.366,3.367,3.367,0,0,1,4.4.182,3.284,3.284,0,0,1,.313,4.48,1.836,1.836,0,0,0-.462,1.375c.03.58.024,1.164.006,1.745a2.154,2.154,0,1,1-4.3.015C284.184,291.26,284.2,290.9,284.2,290.315Zm1.658-.18h-.006a7.086,7.086,0,0,0,.021,1.3,2.483,2.483,0,0,0,.471.753c.17-.246.467-.482.486-.738.063-.867-.023-1.746.051-2.611a1.764,1.764,0,0,1,.5-1.032,1.707,1.707,0,1,0-2.233-2.574,1.748,1.748,0,0,0,.15,2.571,2.522,2.522,0,0,1,.54,1.17A5.048,5.048,0,0,1,285.854,290.136Z" transform="translate(-273.793 -268.28)" fill="#62457f"/>
</svg>
