<svg xmlns="http://www.w3.org/2000/svg" width="23.553" height="29.478" viewBox="0 0 23.553 29.478">
  <g id="Grupo_37302" data-name="Grupo 37302" transform="translate(-294.19 -358.08)">
    <path id="Trazado_62830" data-name="Trazado 62830" d="M374.575,381.754c-.059.224-.121.447-.175.673a6.374,6.374,0,0,1-6.169,5.089c-1.831.069-3.67.048-5.5-.039a5.9,5.9,0,0,1-4.2-2.138,1.732,1.732,0,0,1,.091-2.438,1.707,1.707,0,0,1,2.429-.021,3.581,3.581,0,0,0,2.92,1.1c1.356-.05,2.715-.006,4.073-.014a2.867,2.867,0,0,0,2.938-2.745c.015-.183.02-.367.02-.551q0-7.862,0-15.724a3.282,3.282,0,0,0-.588-2.131,2.787,2.787,0,0,0-2.262-1.162c-1.468-.011-2.936.024-4.4-.014a3.216,3.216,0,0,0-2.611,1.033,1.774,1.774,0,0,1-3.034-.966,1.727,1.727,0,0,1,.535-1.551,6.164,6.164,0,0,1,4.475-2.051c1.852-.033,3.708-.063,5.556.034a6.376,6.376,0,0,1,5.794,5.434,1.439,1.439,0,0,0,.11.295Z" transform="translate(-56.832)" fill="#a3326d"/>
    <path id="Trazado_62831" data-name="Trazado 62831" d="M304.458,440.944q-4.234,0-8.467,0a1.761,1.761,0,0,1-.527-3.451,2.3,2.3,0,0,1,.649-.072q3.878-.007,7.756,0h.757c-.6-.6-1.107-1.114-1.615-1.622a1.755,1.755,0,0,1-.508-1.811,1.736,1.736,0,0,1,2.861-.832c1.67,1.6,3.3,3.246,4.907,4.9a1.652,1.652,0,0,1-.042,2.3q-2.389,2.439-4.828,4.829a1.715,1.715,0,0,1-2.433-.023,1.747,1.747,0,0,1-.056-2.478c.522-.556,1.109-1.051,1.668-1.574Z" transform="translate(0 -66.367)" fill="#a3326d"/>
  </g>
</svg>
