<svg id="Grupo_37258" data-name="Grupo 37258" xmlns="http://www.w3.org/2000/svg" width="27.334" height="34.477" viewBox="0 0 27.334 34.477">
  <path id="Trazado_62767" data-name="Trazado 62767" d="M893.458,170.522q0-8.133,0-16.266c0-.748.2-.943.953-.943q8.474,0,16.948-.007a1.208,1.208,0,0,1,.909.364q4.084,3.936,8.185,7.854a1.019,1.019,0,0,1,.336.785q-.005,10.816-.006,21.631a3.79,3.79,0,0,1-3.732,3.835c-.137.006-.273.007-.41.007H894.466c-.125,0-.251,0-.375-.009a.658.658,0,0,1-.627-.609,3.436,3.436,0,0,1-.006-.376Q893.458,178.655,893.458,170.522Zm1.378,15.9h.327q10.85,0,21.7,0a2.441,2.441,0,0,0,2.565-2.58q0-10.339,0-20.678c0-.109-.01-.219-.016-.346h-.4c-1.583,0-3.167.012-4.75-.005a3.336,3.336,0,0,1-3.306-3.142c-.062-1.524-.026-3.052-.033-4.579,0-.132,0-.264,0-.406H894.836Zm17.452-30.839c0,1.363-.029,2.625.008,3.885a2,2,0,0,0,2.111,1.991c1.207,0,2.413,0,3.62,0,.1,0,.19-.013.352-.025Z" transform="translate(-893.456 -153.306)" fill="#a3326d"/>
  <path id="Trazado_62768" data-name="Trazado 62768" d="M961.162,292.889a1.19,1.19,0,0,0,.015-.177c-.112-1.124.5-1.377,1.424-1.281A7.031,7.031,0,0,1,968.9,297a7.137,7.137,0,0,1,.146,1.312.867.867,0,0,1-.977,1.023c-.364,0-.49.1-.575.463a5.63,5.63,0,0,1-5.788,4.276,5.623,5.623,0,0,1-1.07-11.056C960.805,292.971,960.976,292.933,961.162,292.889Zm.017,1.834a3.846,3.846,0,0,0,1.214,7.578c1.593-.084,3.336-1.612,3.334-2.957h-3.307c-.982,0-1.241-.255-1.241-1.218Q961.179,296.426,961.18,294.723Zm6,2.847c.022-1.849-2.324-4.2-4.205-4.263v4.263Z" transform="translate(-952.808 -283.058)" fill="#a3326d"/>
  <path id="Trazado_62769" data-name="Trazado 62769" d="M962,444.656c-.534,0-1.009.01-1.484,0-.383-.011-.632-.347-.646-.838s.209-.9.552-.908q1.5-.023,3,0c.323,0,.554.346.559.866q.024,2.145,0,4.29c-.006.549-.279.917-.606.906s-.57-.385-.578-.939c-.009-.629,0-1.258,0-2-.247.312-.44.552-.63.8q-2.242,2.905-4.484,5.812c-.375.486-.594.5-1.013.077l-2.97-2.994c-.082-.082-.166-.158-.274-.26l-1.579,2.949c-.322.6-.64,1.208-.966,1.806-.337.619-.7.643-1.061.076q-1.292-2-2.58-4.014a1.216,1.216,0,0,1-.057-1.363c.273-.377.606-.327.921.158.725,1.119,1.446,2.244,2.191,3.4.5-.927.984-1.835,1.47-2.744.328-.613.654-1.23.983-1.841.317-.587.589-.653,1.006-.237q1.577,1.573,3.149,3.155c.122.123.214.225.362.032q2.305-3,4.62-5.987C961.917,444.813,961.938,444.768,962,444.656Z" transform="translate(-942.259 -425.162)" fill="#a3326d"/>
</svg>
