<svg xmlns="http://www.w3.org/2000/svg" width="31.019" height="29.763" viewBox="0 0 31.019 29.763">
  <path id="Icon_awesome-star" data-name="Icon awesome-star" d="M14.374.964l-3.536,7.17L2.925,9.288a1.734,1.734,0,0,0-.959,2.957l5.724,5.578L6.337,25.7A1.732,1.732,0,0,0,8.85,27.527l7.078-3.721,7.078,3.721A1.733,1.733,0,0,0,25.519,25.7l-1.354-7.88,5.724-5.578a1.734,1.734,0,0,0-.959-2.957L21.019,8.134,17.482.964a1.734,1.734,0,0,0-3.109,0Z" transform="translate(-0.419 1.001)" fill="none" stroke="#62457f" stroke-width="2"/>
</svg>
