<svg xmlns="http://www.w3.org/2000/svg" width="27.018" height="29.822" viewBox="0 0 27.018 29.822">
  <g id="Grupo_37306" data-name="Grupo 37306" transform="translate(489.766 -192.186)">
    <path id="Trazado_62832" data-name="Trazado 62832" d="M-476.269,310.528c-3.469,0-6.939-.029-10.408.011a2.951,2.951,0,0,1-3.068-3.353c.177-1.584.2-3.185.295-4.779q.241-4.036.486-8.072c.094-1.572.219-3.144.263-4.717a2.869,2.869,0,0,1,3.057-2.89c.316.024.635.007.951.022a.748.748,0,0,1,.768.792.738.738,0,0,1-.8.724c-.36,0-.719-.016-1.079-.017a1.291,1.291,0,0,0-1.364,1.252c-.118,1.92-.222,3.841-.336,5.762q-.246,4.147-.5,8.293c-.078,1.3-.149,2.6-.24,3.893a1.347,1.347,0,0,0,1.417,1.559q10.567,0,21.133,0a1.342,1.342,0,0,0,1.413-1.532c-.11-1.847-.207-3.694-.312-5.541q-.272-4.828-.546-9.657c-.048-.844-.1-1.689-.136-2.534a1.268,1.268,0,0,0-1.207-1.308c-.525-.048-1.056-.038-1.584-.05-.554-.013-.9-.3-.9-.765s.355-.765.932-.753c.56.012,1.122.012,1.68.054a2.82,2.82,0,0,1,2.6,2.721c.162,3.157.341,6.312.515,9.468q.154,2.8.313,5.6c.05.886.093,1.774.162,2.659a2.853,2.853,0,0,1-2.882,3.151Q-470.954,310.535-476.269,310.528Z" transform="translate(0 -88.531)" fill="#62457f"/>
    <path id="Trazado_62833" data-name="Trazado 62833" d="M-401.274,201.021a15.875,15.875,0,0,1,.615-4.127,7.215,7.215,0,0,1,2.11-3.51,5.059,5.059,0,0,1,7.742,1.456,10.89,10.89,0,0,1,1.118,3.939,15.386,15.386,0,0,1,.078,3.165c-.023.236.087.3.271.379a2.574,2.574,0,0,1,1.591,2.6,2.611,2.611,0,0,1-2.22,2.35,2.6,2.6,0,0,1-2.719-1.5,2.579,2.579,0,0,1,1.292-3.414.383.383,0,0,0,.273-.389,15.228,15.228,0,0,0-.469-5.058,5.109,5.109,0,0,0-1.224-2.263,3.63,3.63,0,0,0-5.162.3,7.136,7.136,0,0,0-1.463,3.3,17.445,17.445,0,0,0-.314,3.531.606.606,0,0,0,.387.653,2.534,2.534,0,0,1,1.316,2.938,2.585,2.585,0,0,1-2.621,1.927,2.591,2.591,0,0,1-2.43-2.128,2.568,2.568,0,0,1,1.516-2.819c.255-.107.357-.218.322-.5A6.661,6.661,0,0,1-401.274,201.021Zm10.932,4.75a1.072,1.072,0,0,0,1.09-1.043,1.1,1.1,0,0,0-1.079-1.1,1.082,1.082,0,0,0-1.067,1.07A1.06,1.06,0,0,0-390.342,205.77Zm-10.215,0a1.078,1.078,0,0,0,1.079-1.055,1.1,1.1,0,0,0-1.089-1.086,1.08,1.08,0,0,0-1.053,1.081A1.05,1.05,0,0,0-400.557,205.77Z" transform="translate(-81.117)" fill="#62457f"/>
    <path id="Trazado_62834" data-name="Trazado 62834" d="M-402.594,572.564h-7.8a1.586,1.586,0,0,1-.285-.006.424.424,0,0,1-.393-.456.407.407,0,0,1,.408-.435c.084-.008.169,0,.254,0h15.694a1.776,1.776,0,0,1,.285.008.413.413,0,0,1,.381.432.427.427,0,0,1-.365.45,1.39,1.39,0,0,1-.316.011Z" transform="translate(-73.697 -355.379)" fill="#62457f"/>
    <path id="Trazado_62835" data-name="Trazado 62835" d="M-315.563,287.945c.527,0,1.054-.007,1.581,0a.755.755,0,0,1,.769.756.765.765,0,0,1-.808.757c-.759-.006-1.518-.034-2.277-.051-.274-.006-.55,0-.822-.017a.77.77,0,0,1-.751-.814.756.756,0,0,1,.821-.7h1.487Z" transform="translate(-160.978 -89.616)" fill="#62457f"/>
  </g>
</svg>
