<svg xmlns="http://www.w3.org/2000/svg" width="34.478" height="34.477" viewBox="0 0 34.478 34.477">
  <path id="Usuario" d="M29.428,5.049A17.239,17.239,0,1,0,5.049,29.428,17.239,17.239,0,1,0,29.428,5.049ZM8.642,29.789a8.729,8.729,0,0,1,17.193,0,15.185,15.185,0,0,1-17.193,0Zm3.115-14.715a5.481,5.481,0,1,1,5.481,5.481A5.487,5.487,0,0,1,11.757,15.075ZM27.585,28.388a10.766,10.766,0,0,0-6.259-7.027,7.5,7.5,0,1,0-8.175,0,10.764,10.764,0,0,0-6.259,7.026,15.218,15.218,0,1,1,20.692,0Zm0,0" fill="#a3326d"/>
</svg>
