<svg xmlns="http://www.w3.org/2000/svg" width="35.344" height="29.293" viewBox="0 0 35.344 29.293">
  <g id="Grupo_37263" data-name="Grupo 37263" transform="translate(1 1.012)">
    <g id="Icon_feather-users" data-name="Icon feather-users" transform="translate(0 0)">
      <path id="Trazado_13487" data-name="Trazado 13487" d="M26.75,31.969V28.812A6.312,6.312,0,0,0,20.437,22.5H7.812A6.312,6.312,0,0,0,1.5,28.812v3.156" transform="translate(-1.5 -4.687)" fill="none" stroke="#fff" stroke-linecap="round" stroke-linejoin="round" stroke-width="2"/>
      <path id="Trazado_13488" data-name="Trazado 13488" d="M20.125,10.812A6.312,6.312,0,1,1,13.812,4.5a6.312,6.312,0,0,1,6.312,6.312Z" transform="translate(-1.58 -4.5)" fill="none" stroke="#fff" stroke-linecap="round" stroke-linejoin="round" stroke-width="2"/>
      <path id="Trazado_13489" data-name="Trazado 13489" d="M34.734,31.958V28.8A6.312,6.312,0,0,0,30,22.7" transform="translate(-1.39 -4.677)" fill="none" stroke="#fff" stroke-linecap="round" stroke-linejoin="round" stroke-width="2"/>
      <path id="Trazado_13490" data-name="Trazado 13490" d="M24,4.7a6.312,6.312,0,0,1,0,12.23" transform="translate(-1.414 -4.49)" fill="none" stroke="#fff" stroke-linecap="round" stroke-linejoin="round" stroke-width="2"/>
    </g>
  </g>
</svg>
