<svg xmlns="http://www.w3.org/2000/svg" width="34.646" height="33.276" viewBox="0 0 34.646 33.276">
  <path id="Icon_awesome-star" data-name="Icon awesome-star" d="M15.542,1.051,11.686,8.869,3.059,10.126A1.89,1.89,0,0,0,2.014,13.35l6.241,6.082L6.779,28.023a1.888,1.888,0,0,0,2.74,1.99l7.717-4.056,7.717,4.056a1.89,1.89,0,0,0,2.74-1.99l-1.476-8.591,6.241-6.082a1.89,1.89,0,0,0-1.045-3.224L22.787,8.869,18.931,1.051a1.891,1.891,0,0,0-3.389,0Z" transform="translate(0.087 1.501)" fill="none" stroke="#fff" stroke-width="3"/>
</svg>
