<svg xmlns="http://www.w3.org/2000/svg" width="34.183" height="40.414" viewBox="0 0 34.183 40.414">
  <path id="Trazado_62820" data-name="Trazado 62820" d="M271.065,395.71a5.3,5.3,0,0,0-2.7-3.716,9.642,9.642,0,0,0-5.121-1.375c-.251-.017-.332-.023-.471-.314a9.154,9.154,0,0,0-1.3-2.087,24.427,24.427,0,0,0-5.773-4.735,7.993,7.993,0,0,0,4.836-2.946,8.174,8.174,0,1,0-14.522-6.163,7.78,7.78,0,0,0,1.033,5.224,8.035,8.035,0,0,0,5.506,3.883,27.92,27.92,0,0,0-3.882,2.817,11.06,11.06,0,0,0-3.365,4.3c-.379.047-.758.086-1.138.126-.337.035-.674.07-1.013.111a7.8,7.8,0,0,0-3.7,1.442,5.694,5.694,0,0,0-2.426,4.183,6.118,6.118,0,0,0,1.875,4.773,20.773,20.773,0,0,0,8.117,4.594c1.1.384,2.242.719,3.342,1.045.6.176,1.2.354,1.8.54a6.522,6.522,0,0,0,1.94.307,5.588,5.588,0,0,0,1.447-.188c.754-.2,1.506-.414,2.257-.629l1.19-.337a32.633,32.633,0,0,0,6.613-2.639,13.63,13.63,0,0,0,4.3-3.372A5.64,5.64,0,0,0,271.065,395.71Zm-26.688.7c.795,1.05,1.579,2.109,2.366,3.167l1.531,2.056c.582.78,1.169,1.554,1.754,2.332l.587.786c-.255-.07-.5-.143-.739-.226-1.316-.459-2.808-.981-4.234-1.541a17.879,17.879,0,0,1-4.6-2.5,5.528,5.528,0,0,1-1.772-2.565,3.3,3.3,0,0,1,.971-3.551,1.454,1.454,0,0,1,1.792-.086A9.62,9.62,0,0,1,244.377,396.415Zm.292-2.607c-.226-.2-.449-.4-.686-.572a7.875,7.875,0,0,0-.681-.441c.129-.029.258-.055.389-.077a8.226,8.226,0,0,1,.84-.074l.216-.01C244.719,393.019,244.694,393.408,244.669,393.807Zm3.1-18.267a6.17,6.17,0,0,1,1.8-4.41,6.319,6.319,0,0,1,4.312-1.972,6.477,6.477,0,0,1,4.675,1.858,6.149,6.149,0,0,1,1.856,4.395,6.3,6.3,0,0,1-1.839,4.519,6.37,6.37,0,0,1-4.549,1.843h-.05A6.371,6.371,0,0,1,247.772,375.54Zm10.089,28.968q.511-.709,1.026-1.415c.791-1.085,1.61-2.208,2.362-3.352a25.455,25.455,0,0,1,1.576-2.062c.372-.454.744-.907,1.1-1.376a9.021,9.021,0,0,1,1.613-1.549l.245-.2a1.99,1.99,0,0,1,1.236-.528,1.444,1.444,0,0,1,.255.025,2.38,2.38,0,0,1,1.472,1.328c.714,1.35.506,2.607-.7,4.207a7.438,7.438,0,0,1-2.713,2.114,42.867,42.867,0,0,1-7.621,3.018Zm5.6-11.889a4.94,4.94,0,0,1,1.422.168,7.638,7.638,0,0,0-1.348,1.038Zm-8.866,12.689-.072.077c-.039.044-.079.087-.121.127-.225.216-.3.221-.3.221s-.067-.007-.252-.191a15.67,15.67,0,0,1-1.356-1.524c-1.217-1.6-2.346-3.122-3.432-4.641a6.275,6.275,0,0,0,5.035-1.942,5.772,5.772,0,0,0,5.089,1.869A46.935,46.935,0,0,1,254.591,405.308Zm-.525-19.025c.206.719.4,1.494.582,2.366a7.025,7.025,0,0,1-.1,3.873,4.381,4.381,0,0,1-.453.9,4.845,4.845,0,0,1-.944-3.33,12.993,12.993,0,0,1,.9-3.868Zm7.094,9.514a2.955,2.955,0,0,1-3.808,1.39,3.843,3.843,0,0,1-2.255-1.96,5.3,5.3,0,0,0,1.541-2.72,11.9,11.9,0,0,0-.563-6.17c-.04-.127-.084-.253-.127-.379a23.514,23.514,0,0,1,3.6,3.053,6.963,6.963,0,0,1,1.962,3.774A5.256,5.256,0,0,1,261.16,395.8Zm-9.3-9.336a10.067,10.067,0,0,0-.288,6.494,5.013,5.013,0,0,0,1.467,2.232.337.337,0,0,1,.1.112.289.289,0,0,1-.049.117,3.622,3.622,0,0,1-2.768,1.915,3.011,3.011,0,0,1-2.927-.979,3.7,3.7,0,0,1-.746-2.413,6.676,6.676,0,0,1,2.044-4.971,26.4,26.4,0,0,1,3.164-2.745l.117-.092C251.939,386.24,251.9,386.351,251.865,386.46Z" transform="translate(-237.003 -367.306)" fill="#fff"/>
</svg>
