<svg xmlns="http://www.w3.org/2000/svg" width="28.291" height="26.928" viewBox="0 0 28.291 26.928">
  <g id="Grupo_636" data-name="Grupo 636" transform="translate(0 0)">
    <path id="Trazado_1644" data-name="Trazado 1644" d="M3308.951,3462.482h-.511c-.168-.084-.337-.163-.5-.25q-3.527-1.847-7.051-3.7a.526.526,0,0,0-.565,0c-2.516,1.324-5.038,2.635-7.557,3.951h-.512c-.662-.366-.878-.727-.777-1.312q.7-4.023,1.395-8.045a.515.515,0,0,0-.171-.52q-2.93-2.829-5.848-5.673a1.065,1.065,0,0,1-.338-1.156,1.054,1.054,0,0,1,.939-.747c2.694-.388,5.388-.787,8.084-1.166a.55.55,0,0,0,.472-.363q1.783-3.625,3.581-7.243a1.169,1.169,0,0,1,.652-.634,1.08,1.08,0,0,1,1.374.635q1.8,3.633,3.592,7.269a.5.5,0,0,0,.462.335c.32.02.636.086.955.132,2.292.332,4.583.677,6.879.988a1.353,1.353,0,0,1,1.244.857v.512a7.558,7.558,0,0,1-.62.792q-2.786,2.732-5.6,5.439a.581.581,0,0,0-.181.6q.679,3.883,1.342,7.77C3309.834,3461.809,3309.7,3462.071,3308.951,3462.482Z" transform="translate(-3286.456 -3435.554)" fill="#fea027"/>
  </g>
</svg>
