<svg xmlns="http://www.w3.org/2000/svg" viewBox="0 0 284.285 149.155">
  <g id="Grupo_37362" data-name="Grupo 37362" transform="translate(390.394 218.399)">




    <path id="Trazado_62879" data-name="Trazado 62879" d="M-191.548-217.879c.688-.289,1.475-.171,2.148-.52h3.138c.267.378-.023.577-.24.827a4.227,4.227,0,0,0-1.25,1.754,19.209,19.209,0,0,0-6.6,1.574.924.924,0,0,1,.4-.844c.661-.65,1.311-1.31,1.969-1.963C-191.753-217.283-191.494-217.5-191.548-217.879Z" transform="translate(-61.088 0)" fill="#752780"/>
    <path id="Trazado_62880" data-name="Trazado 62880" d="M-184.76-215.818a4.227,4.227,0,0,1,1.25-1.754c.217-.25.507-.449.24-.827h1.322c1.088.27,2.177.536,3.264.812a4.861,4.861,0,0,1,.529.2c-.041.463-.473.633-.712.947-.3.4-.844.613-.935,1.181A23.282,23.282,0,0,0-184.76-215.818Z" transform="translate(-64.08 0)" fill="#85277b"/>







    <path id="Trazado_62888" data-name="Trazado 62888" d="M-166.178-186.97a18.409,18.409,0,0,1-4.367,10.083,18.916,18.916,0,0,1-13.294,6.781,2.591,2.591,0,0,0-.33.087c1.22.805,2.349,1.57,3.5,2.306,5.566,3.564,10.772,7.529,14.632,13.014a29.31,29.31,0,0,1,2.013,3.932c0,.709.046,1.421-.006,2.126-.048.646.17.922.819.823q.092.825.185,1.649c-.314,0-.475-.238-.664-.426q-.985-.976-1.961-1.96c-.233-.236-.456-.476-.833-.421a21.422,21.422,0,0,0-2.177-4.482,35.675,35.675,0,0,0-5.815-6.257,74.34,74.34,0,0,0-7.46-5.688c-.166-.113-.323-.355-.555-.217-.062.037.006.293.014.447-.358.031-.532-.245-.741-.452-.895-.888-1.782-1.785-2.678-2.672-.273-.269-.617-.647-.98-.423-.507.314-.869.036-1.287-.092a5.4,5.4,0,0,1,1.561-.973c.664-.474.823-1.311,1.359-1.947a7.753,7.753,0,0,1,.372.692c.166.4.455.505.756.224.664-.622,1.49-1.117,1.771-2.069.4-.093.807-.171,1.2-.282a16.749,16.749,0,0,0,11.9-11.486c.352.045.522-.241.771-.4C-167.622-185.593-167.227-186.673-166.178-186.97Z" transform="translate(-63.018 -9.794)" fill="#d01857"/>






    <path id="Trazado_62895" data-name="Trazado 62895" d="M-243.991-117.866c-.35-5.007,1.28-9.16,5.369-12.2A20.449,20.449,0,0,1-229-133.779a.972.972,0,0,1-.379.854c-.625.606-1.236,1.227-1.85,1.845-.209.21-.464.4-.381.758l-.346.076c-1.569.148-2.34,1.327-3.158,2.444a3.771,3.771,0,0,0-2.254.876,9.787,9.787,0,0,0-3.613,7.076c-.948,0-1.237.9-1.841,1.367C-243.181-118.2-243.433-117.759-243.991-117.866Z" transform="translate(-45.608 -26.369)" fill="#6f2782"/>



    <path id="Trazado_62899" data-name="Trazado 62899" d="M-126.554-119.279a12.066,12.066,0,0,1-2.281,9.31c-.481.7-1.081,1.329-1.626,1.99-.293-.226-.177-.549-.185-.834a12.931,12.931,0,0,0-.18-3c0-.3.245-.483.378-.712a7.76,7.76,0,0,0,1.013-6.127,12.489,12.489,0,0,0-2.557-5.305,16.375,16.375,0,0,0,.193-3.577,7.627,7.627,0,0,1,1.976,1.7,18.246,18.246,0,0,1,3.127,5.819.127.127,0,0,1,.014.109C-126.669-119.686-126.717-119.461-126.554-119.279Z" transform="translate(-80.523 -28.316)" fill="#6f2782"/>
    <path id="Trazado_62900" data-name="Trazado 62900" d="M-196.851-217.644c.054.381-.2.6-.437.827-.657.653-1.308,1.313-1.969,1.963a.924.924,0,0,0-.4.844,17.511,17.511,0,0,0-8.292,8.729c-.463-.06-.659.323-.95.559-.841.681-1.354,1.752-2.485,2.086a17.645,17.645,0,0,1,3.807-8.286A18.6,18.6,0,0,1-196.851-217.644Z" transform="translate(-55.785 -0.235)" fill="#6f2782"/>
    <path id="Trazado_62901" data-name="Trazado 62901" d="M-181.572-80.136q-2.542.643-5.085,1.283a.66.66,0,0,1-.324,0c-2.023-.562-4.108-.877-6.106-1.537a33.588,33.588,0,0,0,3.589-3.7c.475.485.935.986,1.428,1.452a1.639,1.639,0,0,0,2.533-.025c1.371-1.315,2.527-2.822,3.8-4.221a4.3,4.3,0,0,1,.169,1.283C-181.579-83.783-181.572-81.959-181.572-80.136Z" transform="translate(-61.485 -40.981)" fill="#d01857"/>
    <path id="Trazado_62902" data-name="Trazado 62902" d="M-190.021-160.592c.419.128.78.405,1.287.092.363-.224.708.154.98.423.9.887,1.784,1.784,2.678,2.672.209.207.383.483.741.452a31.958,31.958,0,0,1,2.095,6.616,12.186,12.186,0,0,1-2.5-2.27,2.553,2.553,0,0,0-1.337-.849,28.524,28.524,0,0,0-1.295-3.307l-.592,1.157c-.818-.242-1.2-1-1.777-1.523-.311-.279-.53-.346-.807-.017l-2.071,1.4c.039-.392-.21-.628-.444-.9-.363-.414-.918-.673-1.056-1.271A33.109,33.109,0,0,1-190.021-160.592Z" transform="translate(-61.165 -18.014)" fill="#c21d5f"/>


    <path id="Trazado_62905" data-name="Trazado 62905" d="M-216.4-86.192A41.31,41.31,0,0,1-222.684-89a12.669,12.669,0,0,1,2.156-1.987c1.127.481,2.251.966,3.381,1.439.212.089.51.4.593-.136a1.529,1.529,0,0,1,.713.156c2.577,1.017,5.184,1.954,7.826,2.782a51.485,51.485,0,0,0,5.911,1.715c.131.21.456.291.422.657l-2.821-.67-4.791-1.48c-1.554-.725-3.246-1.069-4.817-1.746a.386.386,0,0,0-.461.035C-215.184-87.557-216.033-87.089-216.4-86.192Z" transform="translate(-52.262 -39.704)" fill="#ab226b"/>
    <path id="Trazado_62906" data-name="Trazado 62906" d="M-176.433-82.465c0-1.824-.006-3.648.008-5.471a4.305,4.305,0,0,0-.169-1.283l3.958-5.146a6.007,6.007,0,0,1,.169,2.181c.054.617-.139,1.26.191,1.85a37.678,37.678,0,0,1-3.238,4.077c-.189.2-.464.451-.322.691.187.315.477-.056.731-.059.077,0,.152-.059.231-.078.779-.2,1.06.015,1.082.836.016.575,0,1.15,0,1.725Z" transform="translate(-66.625 -38.651)" fill="#c81d5d"/>
    <path id="Trazado_62907" data-name="Trazado 62907" d="M-197.206-84l2.821.67c.034-.366-.291-.447-.422-.657-.414-.648-1.1-1.081-1.421-1.8a3.5,3.5,0,0,1,1.964-1.846l2.84,3.3a33.587,33.587,0,0,1-3.589,3.7,32.853,32.853,0,0,1-4.255-1.175Z" transform="translate(-59.559 -40.75)" fill="#c81d5d"/>
    <path id="Trazado_62908" data-name="Trazado 62908" d="M-243.97-111.561c.558.107.81-.337,1.171-.616.6-.467.893-1.366,1.841-1.367a12.833,12.833,0,0,0,2.375,6.8c.163.246.405.455.4.788-.839-.526-1.43-.168-1.966.515a2.017,2.017,0,0,1-.79.685A13.024,13.024,0,0,1-243.97-111.561Z" transform="translate(-45.629 -32.675)" fill="#7d277e"/>
    <path id="Trazado_62909" data-name="Trazado 62909" d="M-152.292-131.429c-.649.1-.867-.178-.819-.823.052-.706.008-1.417.006-2.126a26.645,26.645,0,0,1,8.936,1.3c.055.376-.195.59-.418.834a8.551,8.551,0,0,0-1.421,1.553A27.053,27.053,0,0,0-152.292-131.429Z" transform="translate(-73.94 -26.182)" fill="#b82065"/>
    <path id="Trazado_62910" data-name="Trazado 62910" d="M-132.971-104.692a12.931,12.931,0,0,1,.18,3c.008.285-.108.609.185.834a26,26,0,0,1-5.78,4.791c-.53-.267-.355-.748-.324-1.161a4.738,4.738,0,0,0-.166-1.821.783.783,0,0,1,.043-.157,2.524,2.524,0,0,1,.916-.7l.136-.113a22.727,22.727,0,0,0,3.078-2.839c.124,0,.222-.039.251-.176l-.01.009a.229.229,0,0,0,.18-.331l0,.006C-133.58-103.534-133.487-104.321-132.971-104.692Z" transform="translate(-78.378 -35.433)" fill="#7d277e"/>
    <path id="Trazado_62911" data-name="Trazado 62911" d="M-160.232-203.533a16.52,16.52,0,0,1,2.1,6.447c-.637.195-.922.806-1.4,1.187-.306.244-.491.677-.983.63a18.548,18.548,0,0,0-1.792-6.743c.428-.015.624-.374.909-.605C-161.019-202.929-160.8-203.453-160.232-203.533Z" transform="translate(-71.075 -4.633)" fill="#b82065"/>
    <path id="Trazado_62912" data-name="Trazado 62912" d="M-220.076-91.877c-.083.533-.381.225-.593.136-1.13-.472-2.254-.958-3.381-1.439-1.142-.625-2.3-1.231-3.421-1.885a.907.907,0,0,0-1.232.169,8.06,8.06,0,0,1-1.559,1.428,20.467,20.467,0,0,1-3.724-2.628c.662-.765,1.216-1.658,2.293-1.93A68.57,68.57,0,0,0-220.076-91.877Z" transform="translate(-48.74 -37.511)" fill="#972474"/>
    <path id="Trazado_62913" data-name="Trazado 62913" d="M-211.567-197.04c1.131-.335,1.645-1.4,2.485-2.086.29-.236.487-.619.95-.559a19.311,19.311,0,0,0-1.293,7.1c-.662.162-.938.8-1.423,1.173-.31.242-.489.686-.986.642A17.887,17.887,0,0,1-211.567-197.04Z" transform="translate(-55.597 -5.829)" fill="#7d277e"/>
    <path id="Trazado_62914" data-name="Trazado 62914" d="M-211.788-142.344a25.606,25.606,0,0,1,4.056-4.8c.779.511,1.256,1.357,2.053,1.849a43.29,43.29,0,0,0-4,4.812C-210.431-141.049-210.926-141.9-211.788-142.344Z" transform="translate(-55.657 -22.205)" fill="#972474"/>
    <path id="Trazado_62915" data-name="Trazado 62915" d="M-225.988-130.527c-.083-.358.172-.548.381-.758.615-.617,1.225-1.238,1.85-1.845a.972.972,0,0,0,.379-.854,29.353,29.353,0,0,1,5.114-.452q0,.667.008,1.333c-.282.608-1.118.811-1.161,1.592A32.818,32.818,0,0,0-225.988-130.527Z" transform="translate(-51.227 -26.164)" fill="#752780"/>
    <path id="Trazado_62916" data-name="Trazado 62916" d="M-148.669-89.06a37.275,37.275,0,0,1-5.266,2.34c-.345-.15-.349-.45-.347-.762.006-.685,0-1.371,0-2.056l5.623-2.628Q-148.664-90.613-148.669-89.06Z" transform="translate(-73.577 -39.337)" fill="#9f2471"/>
    <path id="Trazado_62917" data-name="Trazado 62917" d="M-146.128-90.421q.006-1.553.012-3.107a17.783,17.783,0,0,0,2.959-1.85l-.011,0a.425.425,0,0,0,.51-.325l-.006.006c.11,0,.177-.043.18-.161l-.008,0a.556.556,0,0,0,.661-.348l-.01.008c.105,0,.173-.051.18-.164l-.007.006a.273.273,0,0,0,.332-.183l-.014,0,.215.021a4.734,4.734,0,0,1,.166,1.82c-.031.413-.206.894.324,1.161A33.852,33.852,0,0,1-146.128-90.421Z" transform="translate(-76.118 -37.976)" fill="#8c2477"/>
    <path id="Trazado_62918" data-name="Trazado 62918" d="M-156.826-88.348c0,.685,0,1.371,0,2.056,0,.312,0,.612.347.762a44.735,44.735,0,0,1-5.8,2.121,10.968,10.968,0,0,1-.164-2.791Z" transform="translate(-71.032 -40.526)" fill="#ab226b"/>
    <path id="Trazado_62919" data-name="Trazado 62919" d="M-203.843-147.107c-.8-.492-1.274-1.338-2.053-1.849a36.332,36.332,0,0,1,4.625-4.006c0,.335.254.513.449.731a7.96,7.96,0,0,1,1.242,1.358Z" transform="translate(-57.493 -20.391)" fill="#ab226b"/>
    <path id="Trazado_62920" data-name="Trazado 62920" d="M-214.751-134.891l-.008-1.333a15.6,15.6,0,0,1,2.045-3.949c.862.441,1.357,1.295,2.106,1.863a21.81,21.81,0,0,0-2.086,5.261c-.373,0-.548-.319-.814-.5C-214.035-133.9-214.165-134.6-214.751-134.891Z" transform="translate(-54.731 -24.377)" fill="#8c2477"/>
    <path id="Trazado_62921" data-name="Trazado 62921" d="M-213.553-84.989c.366-.9,1.214-1.365,1.826-2.042a.386.386,0,0,1,.461-.035c1.572.677,3.264,1.021,4.817,1.746-.013.4-.371.567-.584.831-.4.494-1.017.8-1.232,1.446A43.858,43.858,0,0,1-213.553-84.989Z" transform="translate(-55.107 -40.908)" fill="#b82065"/>
    <path id="Trazado_62922" data-name="Trazado 62922" d="M-233.431-99.541c-1.077.272-1.631,1.165-2.293,1.93a18.03,18.03,0,0,1-3.841-3.827,2.017,2.017,0,0,0,.79-.685c.536-.683,1.127-1.041,1.966-.515A31.413,31.413,0,0,0-233.431-99.541Z" transform="translate(-47.001 -35.995)" fill="#8c2477"/>
    <path id="Trazado_62923" data-name="Trazado 62923" d="M-183.377-166.553c-.282.952-1.107,1.447-1.771,2.069-.3.281-.59.18-.756-.224a7.749,7.749,0,0,0-.372-.692c-.536.636-.7,1.474-1.359,1.947.094-.542-.342-.306-.54-.335a14.647,14.647,0,0,1-3.293-.673,3.959,3.959,0,0,1,.964-1.212c.266-.3.686-.492.684-.977A18.85,18.85,0,0,0-183.377-166.553Z" transform="translate(-61.99 -16.126)" fill="#c21d5f"/>
    <path id="Trazado_62924" data-name="Trazado 62924" d="M-142.79-130.1a8.55,8.55,0,0,1,1.421-1.553c.223-.244.473-.458.418-.834,5.274,1.632,9.337,4.548,10.8,10.207a5.206,5.206,0,0,1,.085.729,18.249,18.249,0,0,0-3.127-5.818,7.611,7.611,0,0,0-1.976-1.7,5.779,5.779,0,0,0-4.967-.949l-1.535.328Z" transform="translate(-77.158 -26.771)" fill="#c21d5f"/>
    <path id="Trazado_62925" data-name="Trazado 62925" d="M-161.477-205.564c-.567.08-.787.6-1.171.917-.285.231-.48.59-.908.605a22.467,22.467,0,0,0-2.75-3.944,1.357,1.357,0,0,1,.675-1.035,1.352,1.352,0,0,0,.682-1.03c.357,0,.517.293.71.509A15.779,15.779,0,0,1-161.477-205.564Z" transform="translate(-69.83 -2.601)" fill="#ab226b"/>

    <path id="Trazado_62927" data-name="Trazado 62927" d="M-205.871-82.227c.214-.65.834-.953,1.232-1.446.213-.264.571-.426.584-.831l4.791,1.48-2.062,2.2A40.554,40.554,0,0,1-205.871-82.227Z" transform="translate(-57.501 -41.724)" fill="#c21d5f"/>
    <path id="Trazado_62928" data-name="Trazado 62928" d="M-160.011-192.35c.492.047.677-.386.983-.63.479-.381.763-.993,1.4-1.187a14.887,14.887,0,0,1,.015,4.954c-1.049.3-1.444,1.377-2.294,1.918-.249.158-.419.444-.771.4A19.973,19.973,0,0,0-160.011-192.35Z" transform="translate(-71.584 -7.551)" fill="#c81d5d"/>
    <path id="Trazado_62929" data-name="Trazado 62929" d="M-164.546-85.229a10.968,10.968,0,0,0,.164,2.791A42.745,42.745,0,0,1-169-80.979a1.323,1.323,0,0,1-.085-.31c-.026-.971-.452-2.029.58-2.779.314-.077.631-.142.941-.232A26,26,0,0,1-164.546-85.229Z" transform="translate(-68.929 -41.498)" fill="#b82065"/>
    <path id="Trazado_62930" data-name="Trazado 62930" d="M-211.766-187.551c.5.044.675-.4.986-.642.485-.378.761-1.011,1.423-1.173a26.472,26.472,0,0,0,.986,4.956c-.293-.023-.463.179-.691.315-.544.324-.621,1.212-1.441,1.167A17.058,17.058,0,0,1-211.766-187.551Z" transform="translate(-55.664 -9.047)" fill="#85277b"/>
    <path id="Trazado_62931" data-name="Trazado 62931" d="M-228.575-92.2a8.061,8.061,0,0,0,1.559-1.428.907.907,0,0,1,1.232-.169c1.125.654,2.279,1.26,3.421,1.885a12.667,12.667,0,0,0-2.156,1.987A23.725,23.725,0,0,1-228.575-92.2Z" transform="translate(-50.426 -38.775)" fill="#9f2471"/>
    <path id="Trazado_62932" data-name="Trazado 62932" d="M-191.769-167.395c0,.485-.417.681-.684.977a3.96,3.96,0,0,0-.964,1.212,13.365,13.365,0,0,1-4.307-1.784c.032-.469.456-.652.7-.964.281-.354.761-.56.808-1.088A24.431,24.431,0,0,0-191.769-167.395Z" transform="translate(-60.04 -15.381)" fill="#b82065"/>

    <path id="Trazado_62934" data-name="Trazado 62934" d="M-166.662-211.367a1.352,1.352,0,0,1-.682,1.03,1.357,1.357,0,0,0-.675,1.035,25.169,25.169,0,0,0-3.785-3.007c.432-.756,1.331-1.117,1.655-1.964a15.584,15.584,0,0,1,3.286,2.489A.46.46,0,0,1-166.662-211.367Z" transform="translate(-68.117 -1.286)" fill="#9f2471"/>
    <path id="Trazado_62935" data-name="Trazado 62935" d="M-197.487-152.039a7.96,7.96,0,0,0-1.242-1.358c-.195-.218-.447-.4-.449-.731a27.754,27.754,0,0,1,3.486-2.575c.138.6.693.858,1.056,1.271.234.267.483.5.444.9Z" transform="translate(-59.587 -19.226)" fill="#b82065"/>
    <path id="Trazado_62936" data-name="Trazado 62936" d="M-197.937-170.152c-.047.528-.527.734-.808,1.088-.247.313-.672.495-.7.964a13.934,13.934,0,0,1-3.809-2.82l1.891-1.684A31.085,31.085,0,0,0-197.937-170.152Z" transform="translate(-58.315 -14.271)" fill="#ab226b"/>
    <path id="Trazado_62937" data-name="Trazado 62937" d="M-171.942-215.1c-.324.847-1.223,1.208-1.655,1.964a32.47,32.47,0,0,0-3.96-1.667c.091-.569.631-.781.935-1.181.239-.314.671-.483.712-.947a9.541,9.541,0,0,1,3.384,1.57A2.407,2.407,0,0,0-171.942-215.1Z" transform="translate(-66.324 -0.457)" fill="#8c2477"/>
    <path id="Trazado_62938" data-name="Trazado 62938" d="M-202.571-174.027l-1.891,1.684a13.287,13.287,0,0,1-2.661-3.129l1.937-1.7A29.855,29.855,0,0,0-202.571-174.027Z" transform="translate(-57.111 -12.848)" fill="#9f2471"/>
    <path id="Trazado_62939" data-name="Trazado 62939" d="M-206.061-178.727l-1.937,1.7a13.124,13.124,0,0,1-1.933-3.655c.82.045.9-.843,1.441-1.167.228-.136.4-.338.691-.315A30.611,30.611,0,0,0-206.061-178.727Z" transform="translate(-56.236 -11.29)" fill="#972474"/>
    <path id="Trazado_62940" data-name="Trazado 62940" d="M-170.487-83.724c-1.032.75-.606,1.808-.58,2.779a1.323,1.323,0,0,0,.085.31l-2.479.684c0-.575.012-1.15,0-1.725-.022-.821-.3-1.032-1.082-.836-.079.019-.154.078-.231.078-.254,0-.545.374-.731.059-.142-.24.134-.493.322-.691.205.384.465.109.691.045,1.275-.361,2.546-.735,3.818-1.1Z" transform="translate(-66.95 -41.842)" fill="#c21d5f"/>
    <path id="Trazado_62941" data-name="Trazado 62941" d="M-124.151-115.824c-.162-.182-.115-.408-.127-.621A.8.8,0,0,1-124.151-115.824Z" transform="translate(-82.927 -31.771)" fill="#c21d5f"/>
    <path id="Trazado_62942" data-name="Trazado 62942" d="M-153.215-128.973a12.464,12.464,0,0,1,.09,3.8c-.423.045-.6-.307-.861-.529-.631-.54-1.07-1.306-1.9-1.619a33.409,33.409,0,0,0-.792-4.459c.377-.054.6.185.833.421q.975.986,1.961,1.961C-153.69-129.211-153.529-128.971-153.215-128.973Z" transform="translate(-72.832 -26.99)" fill="#c81d5d"/>
    <path id="Trazado_62943" data-name="Trazado 62943" d="M-227.913-128.647c-.177.411.226.36.39.442a12.226,12.226,0,0,1,2.747,1.691l-2.212,1.844a7.644,7.644,0,0,0-4.083-1.533C-230.253-127.32-229.482-128.5-227.913-128.647Z" transform="translate(-49.648 -27.968)" fill="#752780"/>
    <path id="Trazado_62944" data-name="Trazado 62944" d="M-134.153-124.466c-1.266-1.205-2.635-2.155-4.521-1.834-.306-.166-.242-.46-.246-.726-.007-.655,0-1.31-.006-1.965a5.779,5.779,0,0,1,4.967.949A16.372,16.372,0,0,1-134.153-124.466Z" transform="translate(-78.362 -27.805)" fill="#7d277e"/>
    <path id="Trazado_62945" data-name="Trazado 62945" d="M-132.208-106.446a20.113,20.113,0,0,0,2.238-4.459,9.992,9.992,0,0,0,.467-3.724,7.758,7.758,0,0,1-1.013,6.128c-.133.23-.377.41-.378.712C-131.409-107.418-131.5-106.631-132.208-106.446Z" transform="translate(-80.456 -32.337)" fill="#c81d5d"/>
    <path id="Trazado_62946" data-name="Trazado 62946" d="M-180.905-144.3c-.455-1.989-.891-3.982-1.525-5.925a2.553,2.553,0,0,1,1.337.849,12.185,12.185,0,0,0,2.5,2.27,24.124,24.124,0,0,1,.8,5.12c-.458.057-.648-.328-.935-.56C-179.456-143.132-179.886-144.082-180.905-144.3Z" transform="translate(-64.806 -21.244)" fill="#b82065"/>
    <path id="Trazado_62947" data-name="Trazado 62947" d="M-186.832-154.147q-.641,1.822-1.281,3.645c-.436-.012-.633-.376-.921-.611-.494-.4-.794-1.041-1.467-1.231.213-1.162.89-2.174,1.084-3.342.277-.329.5-.262.807.017C-188.029-155.15-187.65-154.389-186.832-154.147Z" transform="translate(-62.291 -19.474)" fill="#b82065"/>
    <path id="Trazado_62948" data-name="Trazado 62948" d="M-170.843-97.363l4.621-6.623a18.378,18.378,0,0,1,.179,3.5c0,.251-.108.578.3.651-1.514,2.216-3.051,4.415-4.741,6.5-.33-.589-.136-1.232-.191-1.85A6.007,6.007,0,0,0-170.843-97.363Z" transform="translate(-68.416 -35.653)" fill="#b82065"/>
    <path id="Trazado_62949" data-name="Trazado 62949" d="M-199.724-96.8l4.746,6.312a3.5,3.5,0,0,0-1.964,1.846,67.6,67.6,0,0,1-4.617-6.137A6.312,6.312,0,0,0-199.724-96.8Z" transform="translate(-58.845 -37.893)" fill="#b82065"/>
    <path id="Trazado_62950" data-name="Trazado 62950" d="M-132.475-102.419c-.082-.187.028-.271.18-.331A.229.229,0,0,1-132.475-102.419Z" transform="translate(-80.364 -36.038)" fill="#c81d5d"/>
    <path id="Trazado_62951" data-name="Trazado 62951" d="M-139.188-96.595c.027-.157.134-.161.258-.136a.783.783,0,0,0-.043.157Z" transform="translate(-78.281 -37.911)" fill="#c81d5d"/>
    <path id="Trazado_62952" data-name="Trazado 62952" d="M-137.482-97.789l.136-.113Z" transform="translate(-78.812 -37.549)" fill="#8c2477"/>
    <path id="Trazado_62953" data-name="Trazado 62953" d="M-132.813-102.11c.055-.1.092-.224.251-.176C-132.591-102.15-132.689-102.112-132.813-102.11Z" transform="translate(-80.267 -36.18)" fill="#c81d5d"/>
    <path id="Trazado_62954" data-name="Trazado 62954" d="M-213.232-130.657a18.521,18.521,0,0,0-.363,5.261c-.881-.267-1.278-1.106-1.93-1.645-.289-.239-.511-.571-.955-.5a13.274,13.274,0,0,1,.255-2.82c.041-.247.149-.487-.226-.545.043-.781.879-.984,1.161-1.592.587.287.717.993,1.245,1.346C-213.78-130.977-213.605-130.661-213.232-130.657Z" transform="translate(-54.192 -26.768)" fill="#7d277e"/>
    <path id="Trazado_62955" data-name="Trazado 62955" d="M-168.474-87.482c3.757-1.257,7.515-2.506,11.168-4.051,2.219-.94,4.4-1.952,6.52-3.105.2-.11.383-.331.665-.229a17.782,17.782,0,0,1-2.959,1.85l-5.623,2.629-5.617,2.147a26,26,0,0,0-3.021.929c-.31.09-.627.155-.941.232Z" transform="translate(-69.155 -38.487)" fill="#c81d5d"/>
    <path id="Trazado_62956" data-name="Trazado 62956" d="M-140.847-95.7a.761.761,0,0,1,.661-.348A.556.556,0,0,1-140.847-95.7Z" transform="translate(-77.764 -38.126)" fill="#c81d5d"/>
    <path id="Trazado_62957" data-name="Trazado 62957" d="M-141.829-95a.427.427,0,0,1,.51-.325A.425.425,0,0,1-141.829-95Z" transform="translate(-77.458 -38.351)" fill="#c81d5d"/>
    <path id="Trazado_62958" data-name="Trazado 62958" d="M-139.65-96.352a.269.269,0,0,1,.332-.183A.273.273,0,0,1-139.65-96.352Z" transform="translate(-78.137 -37.973)" fill="#c81d5d"/>
    <path id="Trazado_62959" data-name="Trazado 62959" d="M-141.1-95.388c-.014-.136.076-.156.18-.161C-140.921-95.431-140.988-95.385-141.1-95.388Z" transform="translate(-77.685 -38.282)" fill="#c81d5d"/>
    <path id="Trazado_62960" data-name="Trazado 62960" d="M-139.9-96.11c-.02-.143.076-.158.18-.164C-139.73-96.161-139.8-96.115-139.9-96.11Z" transform="translate(-78.057 -38.057)" fill="#c81d5d"/>
    <path id="Trazado_62961" data-name="Trazado 62961" d="M-140.8-128.908c0,.655,0,1.311.006,1.965,0,.266-.061.56.246.726a13.69,13.69,0,0,0-4.2,2.484,15.8,15.8,0,0,0-.189-3.372,13.933,13.933,0,0,1,2.6-1.474Z" transform="translate(-76.491 -27.887)" fill="#8c2477"/>
    <path id="Trazado_62962" data-name="Trazado 62962" d="M-188.358-116.166a13.136,13.136,0,0,0,1.857-2.988c.7.689,1.38.4,2.058-.043a2.177,2.177,0,0,1,.215-.11,10.558,10.558,0,0,0,4.967,5.431c-.07.379.158.611.4.849.743.733,1.485,1.467,2.21,2.218.151.157.561.326.121.624a12.385,12.385,0,0,1-7.806-3.935c-.341-.349-.622-.948-1-1.013-.358-.062-.587.637-.931.947-.081.072-.171.133-.257.2-.209-.241-.425-.476-.624-.725C-187.544-115.2-188.183-115.492-188.358-116.166Z" transform="translate(-62.958 -30.879)" fill="#972474"/>
    <path id="Trazado_62963" data-name="Trazado 62963" d="M-163.722-103.485c-.409-.074-.3-.4-.3-.651a18.38,18.38,0,0,0-.179-3.5l1.145-1.718c.344-.427.3-.747-.123-1.156-.45-.434-1.119-.739-1.181-1.494A7.891,7.891,0,0,0-159.7-115.7a.756.756,0,0,1,.8.514.5.5,0,0,1-.028.16c-.893,1.506-.352,3.131-.385,4.709,0,.072.147.147.224.221C-160.632-107.888-162.079-105.619-163.722-103.485Z" transform="translate(-70.437 -32.002)" fill="#ab226b"/>
    <path id="Trazado_62964" data-name="Trazado 62964" d="M-185.594-123.413a2.179,2.179,0,0,0-.215.11c-.678.445-1.357.732-2.058.043-.645-.7-1.331-1.371-1.927-2.113a13.494,13.494,0,0,1-2.946-7.11c.355-.036.532.233.741.44q1.132,1.122,2.255,2.254c.232.233.448.488.828.436a13.733,13.733,0,0,0,1.785,2.638c.213.231.388.493.717.171a4.791,4.791,0,0,1,1.978,1.964Z" transform="translate(-61.593 -26.772)" fill="#752780"/>
    <path id="Trazado_62965" data-name="Trazado 62965" d="M-167.726-110.669c.061.755.73,1.059,1.181,1.494.424.409.467.728.123,1.156a12.58,12.58,0,0,1-6,.293c.44-.3.03-.467-.121-.624-.725-.751-1.467-1.485-2.21-2.218-.241-.237-.469-.47-.4-.849a13.449,13.449,0,0,0,5.3,1.025A16.557,16.557,0,0,0-167.726-110.669Z" transform="translate(-67.07 -33.338)" fill="#9f2471"/>
    <path id="Trazado_62966" data-name="Trazado 62966" d="M-180.215-141.62c1.019.22,1.45,1.17,2.175,1.755.287.231.477.617.935.56a17.8,17.8,0,0,1-.142,4.626c-.421.06-.62-.269-.891-.49-.6-.492-.962-1.276-1.784-1.511A38.587,38.587,0,0,0-180.215-141.62Z" transform="translate(-65.496 -23.926)" fill="#ab226b"/>
    <path id="Trazado_62967" data-name="Trazado 62967" d="M-156.8-118.175a.756.756,0,0,0-.8-.514,15.161,15.161,0,0,0,1.426-6.611c.825.313,1.264,1.079,1.9,1.619.26.222.438.574.861.529l-.068,1.121Z" transform="translate(-72.545 -29.011)" fill="#c21d5f"/>
    <path id="Trazado_62968" data-name="Trazado 62968" d="M-180.126-134.445c.821.235,1.179,1.019,1.784,1.511.271.221.47.55.891.49a10.872,10.872,0,0,1-1.11,3.979,9.517,9.517,0,0,1-1.256-1.156c-.319-.273-.523-.73-1.053-.673A18.647,18.647,0,0,0-180.126-134.445Z" transform="translate(-65.292 -26.162)" fill="#972474"/>
    <path id="Trazado_62969" data-name="Trazado 62969" d="M-181.705-128.417c.53-.056.735.4,1.053.673a9.516,9.516,0,0,0,1.256,1.156,7.927,7.927,0,0,1-2.177,3.273,4.791,4.791,0,0,0-1.978-1.964A11.826,11.826,0,0,0-181.705-128.417Z" transform="translate(-64.457 -28.039)" fill="#85277b"/>
    <path id="Trazado_62970" data-name="Trazado 62970" d="M-156.686-116.845l3.319-3.856.408-.33c.333.193.229.522.237.807a14.124,14.124,0,0,0,.159,3l-4.311,5.473c-.078-.074-.226-.149-.224-.221.034-1.577-.507-3.2.385-4.709A.5.5,0,0,0-156.686-116.845Z" transform="translate(-72.658 -30.342)" fill="#9f2471"/>
    <path id="Trazado_62971" data-name="Trazado 62971" d="M-150.63-118.867a14.124,14.124,0,0,1-.159-3c-.008-.285.1-.613-.237-.807a18.017,18.017,0,0,1,4.195-3.621,15.8,15.8,0,0,1,.189,3.372A48.254,48.254,0,0,0-150.63-118.867Z" transform="translate(-74.592 -28.703)" fill="#972474"/>
    <path id="Trazado_62972" data-name="Trazado 62972" d="M-201.943-99.852a6.312,6.312,0,0,1-1.835,2.02c-1.709-2.261-3.377-4.55-4.9-6.941.887-.392,1.307-1.323,2.1-1.822l.214.037c.765,1.489,1.84,2.777,2.73,4.185C-203.093-101.518-202.508-100.691-201.943-99.852Z" transform="translate(-56.626 -34.84)" fill="#ab226b"/>
    <path id="Trazado_62973" data-name="Trazado 62973" d="M-208.493-109.134c-.8.5-1.216,1.43-2.1,1.822l-4.23-5.755c.847-.41,1.321-1.309,2.2-1.676A63.983,63.983,0,0,1-208.493-109.134Z" transform="translate(-54.711 -32.301)" fill="#972474"/>
    <path id="Trazado_62974" data-name="Trazado 62974" d="M-225.139-123.7l2.212-1.844a21.245,21.245,0,0,1,3.538,3.148c.065.066.063.2.092.3a7.636,7.636,0,0,1-2.027,1.861A49.923,49.923,0,0,0-225.139-123.7Z" transform="translate(-51.497 -28.934)" fill="#85277b"/>
    <path id="Trazado_62975" data-name="Trazado 62975" d="M-219.6-118.681a7.636,7.636,0,0,0,2.027-1.861h.291c.061.089.117.182.182.268a44.982,44.982,0,0,1,2.984,3.724c-.879.368-1.353,1.267-2.2,1.676Z" transform="translate(-53.224 -30.494)" fill="#8c2477"/>
    <path id="Trazado_62976" data-name="Trazado 62976" d="M-213.16-118.037a44.982,44.982,0,0,0-2.984-3.724c-.065-.086-.122-.179-.182-.268a12.642,12.642,0,0,1-.171-3.275c.444-.069.666.264.955.5.651.539,1.048,1.377,1.93,1.645a13.087,13.087,0,0,0,.928,3.514,7.6,7.6,0,0,0,7.371,4.91c.52,0,1.041-.015,1.561-.023.033.313.264.506.417.752.408.651,1.289.918,1.417,1.777a12.246,12.246,0,0,1-6.9-.165l-.214-.037A63.98,63.98,0,0,0-213.16-118.037Z" transform="translate(-54.176 -29.007)" fill="#752780"/>
    <path id="Trazado_62977" data-name="Trazado 62977" d="M-196.127-108.933c-.129-.859-1.01-1.126-1.417-1.777-.154-.246-.384-.439-.417-.752a14.1,14.1,0,0,0,3.96-1.249,12.786,12.786,0,0,0,2.652-2.033c.175.673.814.962,1.207,1.453.2.249.415.484.624.725A11.63,11.63,0,0,1-196.127-108.933Z" transform="translate(-59.966 -32.301)" fill="#85277b"/>
    <path id="Trazado_62978" data-name="Trazado 62978" d="M-189.036-131.38c-.38.052-.6-.2-.828-.436q-1.123-1.131-2.255-2.254c-.209-.207-.386-.476-.741-.44a12.761,12.761,0,0,1-.12-4.472c.492-.067.7.349,1.011.59.59.452.889,1.267,1.735,1.4A16.284,16.284,0,0,0-189.036-131.38Z" transform="translate(-61.473 -24.746)" fill="#85277b"/>
    <path id="Trazado_62979" data-name="Trazado 62979" d="M-190.168-139.009c-.847-.13-1.145-.945-1.735-1.4-.315-.241-.518-.657-1.011-.59a16.371,16.371,0,0,1,.662-4.457,3.412,3.412,0,0,1,.969.741c.474.436.825,1.032,1.489,1.242A38.4,38.4,0,0,0-190.168-139.009Z" transform="translate(-61.539 -22.731)" fill="#972474"/>
    <path id="Trazado_62980" data-name="Trazado 62980" d="M-189.495-145.115c-.664-.21-1.015-.806-1.489-1.242a3.412,3.412,0,0,0-.969-.741,16.716,16.716,0,0,1,1-3.633c.673.19.973.827,1.467,1.231.288.235.485.6.921.611Z" transform="translate(-61.838 -21.087)" fill="#9f2471"/>
  </g>
</svg>
